<?xml version="1.0" encoding="utf-8"?>
<!-- Generator: Adobe Illustrator 27.2.0, SVG Export Plug-In . SVG Version: 6.00 Build 0)  -->
<svg version="1.1" id="Layer_1" xmlns="http://www.w3.org/2000/svg" xmlns:xlink="http://www.w3.org/1999/xlink" x="0px" y="0px"
	 viewBox="0 0 2411.7 3368.5" style="enable-background:new 0 0 2411.7 3368.5;" xml:space="preserve">
<style type="text/css">
	.st0{opacity:0.4;}
	.st1{fill:#FFE3A6;}
	.st2{fill:#FFB419;}
	.st3{fill:#FFFFFF;}
</style>
<g id="Layer_2_00000112628643944505758460000006430162858808961156_">
	<g id="Landing">
		<g id="Content">
			<g class="st0">
				<path class="st1" d="M474.9,489.6c-29-70.8-12.1-151.6-10.6-159.1C499.6,150.1,695.5,48.1,807.9,3.3l-0.6-1.6l-5.7-0.6l-2.8-0.3
					c-1-0.1-1.9-0.2-2.8-0.2c-3.7-0.2-7.5-0.3-11.2-0.4c-3.8-0.1-7.5-0.2-11.3-0.3c-1.9,0-3.8-0.1-5.6,0l-5.6,0.2
					c-7.4,0.3-15,0.6-22.3,1.3c-3.7,0.3-7.4,0.7-11.1,1.1s-7.5,0.8-11.1,1.3c-7.3,1.1-14.7,2.3-22.1,3.6c-1.8,0.3-3.7,0.6-5.5,1
					l-5.5,1.2c-3.6,0.8-7.3,1.6-10.9,2.5s-7.3,1.7-10.9,2.7s-7.3,1.9-10.9,3c-7.2,2.2-14.4,4.4-21.6,6.8s-14.4,4.8-21.5,7.7
					c-3.5,1.4-7.1,2.8-10.6,4.3s-7,3-10.5,4.6c-7,3.2-14,6.4-20.9,10.1s-13.8,7.2-20.6,11.2c-28.1,16.2-54.2,35.5-77.9,57.6
					c-12.4,11.6-24.1,24-34.8,37.1c-11.2,13.5-21.4,27.9-30.5,42.8c-19.1,31.2-33.3,65.1-42.1,100.5c-2.3,9-4,17.9-5.6,26.8
					c-0.7,4.5-1.4,8.9-2.1,13.4s-1.1,9-1.5,13.5c-1.7,17.9-2.2,36-1.4,54c0.8,18.3,2.9,36.6,6.4,54.6l1.4,6.9l1.6,7
					c0.6,2.3,1.1,4.6,1.7,7l2,7.1l1,3.5l1.1,3.6l2.4,7.2c0.4,1.2,0.9,2.5,1.3,3.7l1.4,3.7l1.4,3.7c0.4,1.2,1,2.5,1.5,3.8l3.3,7.7
					c0.5,1.3,1.1,2.5,1.7,3.6l1.7,3.5c1.1,2.3,2.3,4.7,3.4,7s2.5,4.5,3.7,6.8l3.8,6.8c1.3,2.2,2.7,4.4,4,6.5l4.1,6.5l4.3,6.2
					c11.4,16.1,24.4,31.1,38.8,44.6c13.5,12.6,28,24,43.4,34.2c14.4,9.4,29.5,17.8,45.1,25.2c14.7,7,29.9,13.1,45.3,18.4
					c3.8,1.3,7.5,2.5,11.3,3.7l5.6,1.8c1.9,0.6,3.7,1.1,5.6,1.7s3.7,1.1,5.6,1.6s3.7,1,5.6,1.5l11.2,2.9c7.5,1.8,14.9,3.5,22.2,5
					s14.7,2.9,22.1,4.2c14.7,2.5,29.3,4.6,43.8,6.4c29,3.5,57.5,5.6,85.8,7.2c14.2,0.7,28.2,1.4,42.2,1.8l10.5,0.4l10.5,0.3
					l20.9,0.7c55.5,1.6,110.2,3,164.6,5.9c27.2,1.5,54.3,3.3,81.3,5.4c13.5,1.1,27,2.3,40.5,3.6l40.4,3.7c32.1,3,64.2,6.1,96.3,9.4
					l31.8-15l-74.8-2.3C901.7,716.3,551.1,675.9,474.9,489.6z"/>
				<path class="st1" d="M1464.2,1806.4c-179.4,18.7-204.5,59.4-403.4,106.9c-245.4,58.6-550.5,131.3-762.1-24.1
					c-115-84.5-198.4-233.5-196.6-386.2c1.9-150.3,86.1-281.4,165.5-351.7c79.8-70.6,181-103,294.9-110.7l38.1,2l-12.3-15.3
					l-3.4,0.1l-10.3,0.3c-3.4,0.1-6.9,0.3-10.3,0.5c-6.9,0.3-13.7,0.8-20.6,1.2c-27.5,2-54.9,5-82.4,9.8l-5.1,0.9l-5.1,1
					c-3.4,0.7-6.9,1.3-10.3,2c-6.8,1.5-13.7,2.9-20.5,4.6l-5.1,1.2c-1.7,0.4-3.4,0.9-5.1,1.3l-10.2,2.7c-6.8,2-13.6,3.9-20.3,6.1
					c-3.4,1.1-6.8,2.1-10.1,3.3s-6.8,2.3-10.1,3.5c-6.7,2.5-13.4,5-20,7.7l-5,2c-1.7,0.7-3.3,1.4-5,2.2c-3.3,1.5-6.6,2.9-9.9,4.4
					l-9.8,4.7c-1.6,0.8-3.3,1.6-4.9,2.4l-4.8,2.5c-12.9,6.7-25.7,13.9-38.1,21.8s-24.6,16.4-36.3,25.4
					c-23.5,18.1-45.6,37.9-66.2,59.3c-2.6,2.7-5.2,5.3-7.7,8.1l-7.6,8.3l-7.4,8.4c-1.3,1.4-2.5,2.8-3.7,4.3l-3.7,4.3
					c-9.7,11.5-19.1,23.4-28.1,35.9c-2.2,3.1-4.4,6.2-6.6,9.4s-4.3,6.3-6.4,9.6c-4.3,6.4-8.4,13-12.5,19.5
					c-8.1,13.3-15.7,27-22.8,41.1s-13.5,28.8-19.4,43.8l-4.3,11.3c-1.4,3.8-2.7,7.7-4,11.5c-0.7,1.9-1.3,3.9-2,5.8l-1.8,5.9
					l-1.8,5.9c-0.6,2-1.2,3.9-1.7,5.9l-3.2,12c-1.1,4-1.9,8.1-2.9,12.1l-1.4,6.1l-1.2,6.1c-0.8,4.1-1.6,8.2-2.3,12.3
					c-1.3,8.3-2.8,16.6-3.7,25c-1.1,8.4-1.7,16.8-2.3,25.2c-0.3,4.2-0.4,8.4-0.6,12.7L0,1555l-0.1,6.3c0,4.2-0.1,8.5,0,12.7
					l0.3,12.7c0.7,16.9,2.1,33.8,4.4,50.5c9.4,67.2,31.4,132.1,64.7,191.2c8.4,14.8,17.4,29.2,27,43.3c9.8,14,20.1,27.7,31.1,40.8
					c2.7,3.3,5.6,6.5,8.4,9.8l4.3,4.9l4.4,4.8c2.9,3.2,5.9,6.3,8.9,9.4l9.2,9.2l2.3,2.3l2.4,2.2l4.8,4.5l4.8,4.5
					c1.6,1.5,3.3,2.9,4.9,4.4c3.3,2.9,6.6,5.8,9.9,8.7l10.2,8.4c13.8,11,28.2,21.5,43.1,31.2c14.9,9.7,30.3,18.5,46,26.6
					c31,15.9,63.5,28.9,97,38.7c16.4,4.9,32.9,8.9,49.4,12.2s32.9,6,49.1,8c8.1,1,16.3,1.8,24.4,2.5c4,0.4,8.1,0.7,12.1,0.9
					s8.1,0.5,12.1,0.7c8,0.4,16,0.7,24,0.8s15.8,0.1,23.7,0c15.7-0.3,31.3-0.9,46.7-2c7.7-0.6,15.3-1.2,22.9-2
					c3.8-0.4,7.6-0.8,11.4-1.2c3.8-0.4,7.6-0.8,11.3-1.3c15.1-1.8,29.9-4.1,44.6-6.6c7.4-1.2,14.7-2.6,21.9-4s14.5-2.9,21.7-4.4
					c57.5-12.4,112.5-28.6,165.9-46.7c13.3-4.5,26.6-9.2,39.7-13.9c13.1-4.7,26.2-9.4,39.2-14.2s25.9-9.7,38.7-14.6l19.2-7.3
					l19.4-7.5l19.8-7.7c3.3-1.3,6.6-2.5,9.9-3.9l9.9-4.1l19.7-8.1l19.5-8.5l9.8-4.2l9.7-4.4c6.4-3,12.9-5.8,19.3-8.9l19-9l18.7-9.1
					l36.6-18l9-4.4l8.9-4.2c3-1.4,6-2.8,9-4.2l8.9-4l8.9-4l8.9-3.7c3-1.2,6-2.4,9-3.7s6-2.2,9-3.4c12-4.6,24.3-8.7,36.7-12.6
					l18.8-5.3c1.6-0.4,3.1-0.9,4.7-1.3l4.8-1.2l9.6-2.3c6.4-1.5,12.8-3.2,19.3-4.4l19.5-4l4.9-1l5-0.9l10-1.8
					c6.7-1.2,13.3-2.3,19.9-3.5s13.3-2.2,19.9-3.3s13.2-2.1,19.9-3s13.3-1.8,19.9-2.7l10-1.2l10-1.1c13.3-1.4,26.6-2.6,39.9-3.3
					c26.6-1.6,53.2-1.7,79.8-0.3l9.9,0.7l5,0.3l5,0.5l9.9,0.9l9.9,1.2l4.9,0.6c1.7,0.2,3.3,0.5,4.9,0.7l9.8,1.4
					c3.3,0.5,6.5,1.1,9.8,1.7s6.6,1.1,9.8,1.8l9.8,2c3.3,0.6,6.5,1.5,9.7,2.2s6.5,1.5,9.7,2.3l9.6,2.5l4.8,1.3l4.8,1.4l9.5,2.8
					c3.2,1,6.3,2.1,9.4,3.1s6.3,2,9.4,3.2c3.4,1.2,6.8,2.5,10.2,3.8l17-11l-40.5-10.3C1704.4,1781.4,1575.6,1794.8,1464.2,1806.4z"
					/>
				<path class="st1" d="M2107.1,992.2c23.1,71.2-5.2,156.3-46.4,207.2c-218,270.3-985.9-193.8-1498.2-159l-55.6,1.4l24.8,14.5
					c4.7-0.7,9.5-1.3,14.2-1.8c26.5-2.9,53.1-4.3,79.8-4c26.7,0.2,53.5,1.8,80.1,4.6c53.3,5.6,106.1,15.7,158.1,28.9
					s103.4,29.5,154.1,47.6c25.4,9,50.6,18.5,75.8,28.3s50.3,19.8,75.4,30c50.2,20.4,100.3,41.2,151,61.5s101.9,39.7,154.4,57.4
					c26.2,8.8,52.7,17.2,79.7,24.9s54.3,14.8,82.1,21.1c6.9,1.6,14,3,21,4.5s14.1,2.8,21.2,4.1c14.2,2.7,28.6,5,43.1,7.1
					c29.7,4.3,59.6,6.9,89.7,7.8c31.9,1.1,63.8-0.4,95.4-4.4c16.9-2.2,33.6-5.4,50.1-9.6c17.4-4.4,34.5-10.1,51.1-17.1
					c17.5-7.3,34.2-16.2,50.1-26.6c16.3-10.7,31.6-23.1,45.4-36.9c3.4-3.5,6.9-7,10.1-10.7s6.5-7.3,9.5-11.1
					c6-7.4,11.7-15.1,16.9-23.1c5.2-7.8,9.8-15.7,14.1-23.7s8.2-16.1,11.8-24.3c7.1-16.3,12.9-33.2,17.4-50.4
					c2.2-8.6,4.1-17.4,5.7-26.2s2.7-17.8,3.5-26.9c1.7-18.5,1.5-37.2-0.5-55.7l-0.4-3.5l-0.5-3.6c-0.3-2.4-0.6-4.7-1-7.1l-1.3-7.1
					c-0.4-2.4-1-4.8-1.5-7.1c-1-4.7-2.3-9.5-3.6-14.2c-1.4-4.7-2.8-9.4-4.6-14.1c-6.6-18.6-15.6-36.2-26.7-52.5
					c-10.6-15.4-23-29.6-36.8-42.2c-12.8-11.7-26.7-22.2-41.4-31.5c-13.7-8.6-28-16.3-42.7-23c-14.3-6.6-28.6-12.2-42.9-17.1
					s-28.5-9.3-42.6-13s-28.2-7.1-42.3-10.1s-28.1-5.5-42-7.8c-7-1.1-14-2.2-20.9-3.2s-13.9-2-20.8-3s-13.9-1.8-20.8-2.6
					s-13.8-1.6-20.7-2.4c-27.6-2.9-55.1-5.3-82.5-7.3c-54.8-3.9-109.3-6.7-163.6-9.3s-108.5-5.1-162.5-8.2
					c-50.4-2.9-100.8-6.3-151-10.5l-49.3,13.7l89.5,2.6C1648.5,781.2,2046.1,804,2107.1,992.2z"/>
				<path class="st1" d="M2411.6,2493.2c-0.5-16.3-1.4-32.4-3-48.4l-1.2-11.9l-1.5-11.9c-1-7.9-2.3-15.7-3.5-23.6
					c-0.3-1.9-0.6-3.9-1-5.8l-1.1-5.8l-2.2-11.6l-2.5-11.5l-1.3-5.7l-1.4-5.7l-2.8-11.4l-3-11.3l-1.5-5.6l-1.6-5.6l-3.3-11.1
					c-4.6-14.7-9.5-29.3-14.9-43.6s-11.2-28.4-17.4-42.4c-6.2-13.9-12.7-27.7-19.9-41.4c-3.6-6.9-7.3-13.7-11.4-20.9
					c-4-6.6-8-12.9-12-19.4l-12.5-18.9c-4.3-6.2-8.7-12.3-13-18.3c-34.9-47.2-75.5-89.8-120.9-127c-43.8-35.7-91-66.8-141.1-93
					c-24.6-13-49.7-24.7-74.9-35.6c-25.4-11-51.3-20.7-77.6-29.1c-13.8-4.4-27.7-8.4-41.7-11.9l-28.7,7.8l48.9,10.6
					c33.1,10,65.4,22.7,96.5,38c57.3,28.1,231.9,115.9,317.2,320.7c9,21.7,83.6,208,17.2,413.8c-32.6,101.2-124.9,286-518.4,468.8
					c-583,270.7-1275.4,280.6-1681.8,259.4l-0.4,5.7c13.5,0.4,27,1.2,40.6,2s27,1.6,40.5,2.5s27,1.8,40.5,2.7s27,1.8,40.6,2.8
					l162.5,11.4l20.4,1.4l20.4,1.3c13.6,0.8,27.2,1.9,40.8,2.6s27.2,1.7,40.9,2.4l20.5,1l20.5,1.1c54.6,2.5,109.4,4.7,164.4,5.9
					c55,1.1,110.2,1.7,165.6,1.2c6.9,0,13.8-0.1,20.8-0.3l20.8-0.4l20.8-0.4c6.9-0.1,13.9-0.4,20.8-0.7l41.7-1.3l41.8-2l10.5-0.5
					c3.5-0.2,7-0.3,10.5-0.6l20.9-1.4l20.9-1.4c7-0.5,14-0.9,21-1.5l41.9-3.6l10.5-0.9c3.5-0.3,7-0.7,10.5-1.1l21-2.2l21-2.2
					l10.5-1.1l10.5-1.3l41.9-5.5l10.5-1.4l10.5-1.6l21-3.3l21-3.3l10.5-1.7l10.4-1.9l20.9-3.8l20.9-3.9l10.5-2l10.4-2.2
					c7-1.4,13.9-3,20.8-4.5l20.8-4.5l10.4-2.3l10.4-2.5l41.5-10.3l10.4-2.6l10.3-2.9l20.6-5.8l20.6-5.9l10.3-3
					c3.4-1,6.8-2.1,10.2-3.2l20.5-6.5l20.5-6.6l10.2-3.3c3.4-1.1,6.8-2.4,10.2-3.5l20.3-7.2l20.3-7.3c6.7-2.5,13.5-4.8,20.2-7.5
					c13.4-5.3,26.8-10.6,40.1-16l10-4l5-2l5-2.1l19.9-8.6c13.2-5.7,26.4-11.9,39.6-17.9c3.3-1.5,6.6-3,9.9-4.6l9.9-4.8l19.7-9.6
					c3.3-1.6,6.5-3.3,9.8-5l9.8-5.1c6.5-3.4,13.1-6.7,19.6-10.3l19.5-10.7c3.2-1.8,6.5-3.6,9.7-5.4l9.7-5.6l19.3-11.3l19.2-11.8
					l9.6-5.9l9.5-6.2c6.4-4.1,12.7-8.2,19-12.5l18.9-13l4.7-3.3l4.7-3.4l9.3-6.8c25.3-18.5,49.5-38.2,72.7-59.2
					c24-21.7,46.7-44.7,67.9-69.1c22-25.3,42.1-52.1,60.3-80.3l3.5-5.3l3.3-5.5l6.6-11c4.3-7.4,8.5-14.9,12.6-22.5
					c3.9-7.7,8-15.3,11.6-23.2c1.8-3.9,3.7-7.8,5.5-11.8s3.5-8,5.2-11.9c13.4-31.8,23.9-64.7,31.4-98.3c0.5-2.1,0.9-4.1,1.4-6.2
					l1.2-6.2l2.3-12.4c0.4-2.1,0.8-4.1,1.1-6.2l1-6.2l1.9-12.4c0.7-4.1,1.1-8.3,1.5-12.4l1.3-12.4l0.3-3.1l0.2-3.1l0.5-6.2l0.9-12.3
					c0.3-4.1,0.4-8.2,0.5-12.3l0.4-12.3C2411.7,2509.4,2411.8,2501.3,2411.6,2493.2z"/>
			</g>
			<g class="st0">
				<path class="st2" d="M464.2,330.5c-1.5,7.5-18.3,88.3,10.6,159.1c73.2,178.8,399,223.2,741.2,253.9c7.4,0.7,9.9-9.6,3-12.4l0,0
					l-10.8-0.9c-13.5-1.2-26.9-2.4-40.3-3.8c-13.4-1.3-26.9-2.7-40.3-4.3c-26.8-3.2-53.5-7.3-80.1-12.1s-52.9-10.6-79.1-17.3
					c-26.2-6.7-52-14.3-77.5-22.8c-25.5-8.6-50.6-18-75.1-28.4l-9.2-3.9l-9.1-4c-6.1-2.6-12-5.4-18-8.2c-11.9-5.7-23.5-11.4-35-17.4
					c-22.9-12-44.7-24.8-64.9-38.2l-7.5-5.1c-2.5-1.7-4.8-3.5-7.3-5.2c-1.2-0.8-2.4-1.7-3.6-2.5l-3.5-2.6c-2.3-1.7-4.7-3.4-6.9-5.2
					s-4.6-3.5-6.7-5.2l-6.5-5.3c-2.1-1.8-4.1-3.6-6.2-5.3s-4-3.6-6-5.3c-7.4-6.8-14.5-14-21.1-21.5c-5.9-6.6-11.2-13.6-16-21
					c-4.1-6.2-7.6-12.8-10.6-19.7l-1-2.3l-0.8-2.4c-0.3-0.8-0.6-1.5-0.9-2.3s-0.5-1.6-0.8-2.3s-0.6-1.5-0.8-2.3s-0.4-1.5-0.7-2.3
					l-0.3-1.1c-0.1-0.3-0.2-0.7-0.3-1c-0.1-0.6-0.2-1.2-0.3-1.7l-0.9-4.3l-0.5-2.5l-0.2-1.2l-0.2-1.4c-0.1-0.9-0.3-1.8-0.5-2.8
					s-0.3-2-0.4-2.9l-0.4-2.9l-0.3-3.1c-1-8.3-1.6-17.1-1.8-26.1s0-18.1,0.6-27c0.2-2.2,0.4-4.5,0.5-6.7s0.5-4.4,0.7-6.7
					c0.6-4.4,1.1-8.9,1.8-13c2.9-17.5,7.6-34.7,14-51.2c3.3-8.7,7.2-17.5,11.6-26.5s9.3-17.9,14.7-27.1c1.4-2.3,2.7-4.6,4.2-6.9
					l4.4-6.9c1.5-2.3,3-4.6,4.5-6.9l2.3-3.5l2.4-3.4c3.2-4.6,6.5-9.3,9.9-13.9c0.8-1.2,1.7-2.3,2.6-3.5l2.6-3.5l5.3-7
					c3.7-4.6,7.3-9.4,11.2-14l2.9-3.5c1-1.2,2-2.3,2.9-3.5c1.9-2.4,3.9-4.7,5.9-7.1c4-4.7,8-9.4,12.2-14.1c2.1-2.4,4.2-4.7,6.3-7.1
					s4.2-4.8,6.3-7.2c4.3-4.8,8.7-9.5,13.1-14.2c2.3-2.3,4.4-4.8,6.7-7.2s4.5-4.8,6.8-7.2s4.6-4.8,6.9-7.2l3.5-3.6l3.5-3.8
					c4.7-4.9,9.4-9.8,14.2-14.6c9.5-9.9,19.4-19.7,29.3-29.9l3.8-3.8c1.2-1.3,2.5-2.6,3.7-3.9c2.5-2.6,5-5.3,7.5-7.9
					s5.1-5.2,7.7-7.8c1.3-1.2,2.5-2.7,3.8-4.1l3.8-4.1L808,3.3C695.5,48.1,499.6,150.1,464.2,330.5z"/>
				<path class="st2" d="M1756.2,3064.9c393.5-182.8,485.8-367.6,518.4-468.8c66.4-205.8-8.2-392.1-17.2-413.8
					c-85.3-204.8-259.9-292.6-317.2-320.7c-21.5-10.6-43.6-19.9-66.2-28c-7-2.5-12.3,6.4-6.8,11.3l0,0c21.4,8.1,42.2,17.5,62.4,28.3
					c23.5,12.3,46.2,26.2,67.9,41.4l4.1,2.8l4,2.9c2.7,2,5.3,3.9,7.9,5.9l7.8,6l7.7,6.2c10.2,8.3,20,16.9,29.5,25.9
					c2.4,2.2,4.7,4.5,7,6.8s4.7,4.5,6.9,6.9c4.5,4.7,9.1,9.3,13.4,14.2c8.8,9.5,17,19.5,25,29.6c7.8,10.2,15.4,20.6,22.3,31.3l5.2,8
					l5,8.2l2.5,4.1l1.2,2l1.2,2.1l4.6,8.3l2.3,4.1l2.2,4.2l4.3,8.4c1.5,2.8,2.8,5.6,4.1,8.5s2.6,5.7,3.9,8.5
					c0.7,1.4,1.3,2.9,1.9,4.3l1.8,4.3l3.6,8.6c2.2,5.8,4.4,11.6,6.5,17.4l5.8,17.6l2.6,8.9c0.8,3,1.7,5.9,2.5,8.9l4.2,17.8
					c1,5.3,2.1,11.2,3,17c0.5,2.9,0.9,5.9,1.4,8.9s0.9,6,1.2,9s0.8,6,1.1,9s0.7,6,0.9,9.1c1.1,12.1,1.8,24.3,2.1,36.4
					s0.2,24.2-0.2,36.2l-0.4,9l-0.2,4.5l-0.3,4.5l-0.6,8.9l-0.8,8.8l-0.4,4.4l-0.5,4.4l-1.1,8.7l-1.3,8.7c-0.4,2.9-0.8,5.8-1.3,8.6
					c-1,5.7-1.8,11.4-3,17l-1.6,8.4l-1.9,8.3c-1.2,5.6-2.7,11-4.1,16.4c-0.4,1.4-0.7,2.7-1.1,4.1l-1.2,4c-0.8,2.7-1.6,5.3-2.3,8
					c-1.6,5.3-3.3,10.6-4.9,15.8l-5.5,15.4l-2.9,7.6l-1.4,3.8l-0.7,1.9l-0.8,1.9l-3.1,7.4c-1,2.5-2.1,4.9-3.2,7.3l-3.3,7.2l-1.6,3.6
					c-0.5,1.2-1.2,2.4-1.8,3.5l-3.5,7.1l-1.7,3.5c-0.6,1.2-1.2,2.3-1.8,3.4c-1.2,2.3-2.4,4.6-3.6,6.8l-3.7,6.7
					c-1.3,2.2-2.6,4.3-3.9,6.5s-2.6,4.3-3.9,6.4s-2.6,4.2-4,6.3l-4.1,6.2c-1.4,2.1-2.8,4.1-4.2,6.1l-2.1,3c-0.7,1-1.5,2-2.2,3
					c-1.5,2-2.9,4-4.3,6l-4.5,5.9l-2.2,2.9c-0.7,1-1.6,1.9-2.3,2.9l-4.6,5.8c-1.5,1.9-3.2,3.8-4.8,5.7l-2.4,2.9
					c-0.8,1-1.6,1.9-2.4,2.9l-5,5.6l-2.5,2.8l-2.6,2.8c-13.7,14.9-28.4,29.5-44.2,43.8s-32.5,28.4-50,42.3s-35.9,27.5-54.8,41
					l-7.1,5.1c-1.2,0.9-2.3,1.7-3.6,2.5l-3.7,2.5l-14.6,10c-4.9,3.3-9.9,6.6-14.9,9.9l-7.4,4.9l-7.6,4.8l-15.2,9.7l-15.5,9.5
					l-7.7,4.8c-2.6,1.6-5.3,3.1-7.9,4.7l-15.8,9.4c-2.6,1.6-5.3,3.1-8,4.6l-8,4.6c-5.4,3.1-10.6,6.2-16.1,9.2l-16.3,9.1l-8.1,4.6
					c-2.7,1.5-5.5,3-8.2,4.5c-11,5.9-21.9,12.1-33.2,17.9l-16.7,8.9l-4.2,2.2l-4.2,2.1l-8.5,4.3c-11.3,5.7-22.6,11.6-33.8,17.4
					c-5.6,3-11.3,5.7-17,8.5l-17.1,8.4c-91.2,45.3-185.4,87.1-282,126.4l-9,3.7l-9.1,3.6l-18.2,7.1l-18.3,7.2l-9.1,3.6l-9.2,3.4
					l-36.9,13.8l-9.2,3.5l-9.3,3.3l-18.6,6.6c-24.8,9.1-49.8,17.2-74.9,25.8c-6.3,2.2-12.6,4.1-18.9,6.1l-18.9,6l-19,6.1
					c-3.2,1-6.3,2-9.5,2.9l-9.6,2.9c-50.8,15.7-102.4,29.5-154.3,42.6l-19.5,4.7l-19.5,4.6c-3.3,0.8-6.5,1.6-9.8,2.3l-9.8,2.2
					l-19.7,4.3c-26.2,5.9-52.5,11-78.9,16.2c-26.4,4.8-52.9,9.7-79.5,13.9l-20,3.2c-6.7,1-13.3,2-20,3l-20,2.8
					c-6.7,0.9-13.3,1.9-20,2.8c-53.5,7.1-107.1,12.8-161.1,16.9c-53.9,4.1-107.9,6.5-162,6.9c-13.5,0.1-27,0-40.5-0.1
					s-27-0.5-40.5-0.9s-27-1.1-40.5-1.8s-27-1.8-40.4-3l-0.3,4.3C480.8,3345.4,1173.2,3335.6,1756.2,3064.9z"/>
				<path class="st2" d="M2060.8,1199.5c41.1-51,69.5-136,46.4-207.2c-58.6-180.8-427.7-209-801.8-240.9c-8-0.7-10.6,10.4-3.2,13.4
					l0,0c21.8,2.3,43.5,4.6,65.2,7.1c53.7,6.2,107.3,13.2,160.6,21.7s106.3,18.2,158.5,30.2c13,3,26,6.1,39,9.4s25.8,6.7,38.5,10.3
					c25.5,7.2,50.7,15,75.2,23.7c12.2,4.4,24.3,8.9,36.2,13.7s23.5,9.9,34.8,15.2c22.6,10.7,43.9,22.6,62.6,35.7
					s34.6,27.5,45.5,42.2c5.1,6.7,9.4,14,12.8,21.8c3,6.8,5,14.1,6.1,21.5c0.3,1.8,0.4,3.7,0.7,5.5c0.1,1.9,0.3,3.8,0.4,5.7
					c0,1,0.1,1.9,0.1,2.9v3c0,1-0.1,2-0.1,3v1.5l-0.1,1.5c-0.2,4-0.8,8.2-1.4,12.4s-1.6,8.5-2.5,12.8c-4.4,17.9-11.4,35.1-20.8,51
					c-4.5,7.7-9.6,15-15.2,21.9c-2.5,3.1-5.2,6-8.1,8.8c-1.3,1.4-2.8,2.6-4.1,3.9s-2.9,2.4-4.3,3.7c-5.8,4.7-12.1,8.9-18.8,12.5
					c-7.2,3.8-14.6,7.1-22.4,9.7c-8.6,2.9-17.4,5.3-26.3,7.1c-9.9,2-19.8,3.4-29.8,4.4c-22.1,2-44.4,2.6-66.6,1.6
					c-11.7-0.4-23.5-1.2-35.5-2.2s-24.2-2.2-36.5-3.6s-24.7-2.9-37.1-4.7c-6.2-0.8-12.5-1.8-18.8-2.6s-12.6-1.8-18.9-2.9
					c-25.3-3.9-50.8-8.2-76.6-12.7s-51.7-9.2-77.9-13.9c-52.3-9.5-105.2-19.1-158.6-28.5s-107.2-18.4-161.3-27
					c-108.1-17.2-216.8-33.5-325.4-46.7c-54.3-6.5-108.7-12.1-163.2-15.4c-27.3-1.6-54.6-2.7-82-2.9c-12.5-0.1-25.1,0-37.7,0.4l0,0
					c-3.1,1.6-4.3,5.4-2.7,8.4c1.1,2.2,3.4,3.5,5.8,3.4C1103.3,1022.7,1846.8,1464.7,2060.8,1199.5z"/>
				<path class="st2" d="M267.7,1151.2c-79.4,70.3-163.7,201.4-165.5,351.7c-1.9,152.7,81.5,301.7,196.6,386.2
					c211.6,155.5,516.7,82.7,762.1,24.1c199-47.5,224-88.2,403.4-106.9c104.4-10.9,224-23.3,353.1,9.8c3.5,0.9,7-1.2,7.9-4.6
					c0.6-2.3-0.1-4.8-1.9-6.5l0,0c-12.7-3.2-25.5-6.2-38.4-8.8c-3.4-0.8-6.8-1.3-10.1-2s-6.8-1.3-10.2-1.9
					c-6.8-1.1-13.6-2.3-20.4-3.3l-10.2-1.5l-10.2-1.3l-5.1-0.7l-5.1-0.6l-10.3-1.1c-54.8-5.5-110-6.1-164.8-4.9
					c-13.7,0.2-27.4,0.7-41,1.1l-20.4,0.6l-10.2,0.3l-5.1,0.2l-5.2,0.2l-20.8,0.8c-6.9,0.2-13.9,0.7-20.9,1.1l-10.5,0.6l-5.2,0.3
					c-1.8,0.1-3.5,0.3-5.3,0.5l-21.1,1.9c-14.1,1.7-28.3,3.1-42.4,5.4c-3.5,0.6-7.1,1-10.6,1.7l-10.6,1.9l-10.6,1.9l-10.4,2.1
					l-10.5,2.1c-3.5,0.7-6.9,1.5-10.3,2.2l-10.3,2.2l-10.2,2.2l-20.1,4.5l-9.9,2.2l-5,1.1l-4.9,1l-19.6,4.1l-19.4,3.8
					c-6.5,1.2-13,2.3-19.4,3.4l-9.7,1.7l-9.7,1.5l-19.4,2.9l-19.5,2.5l-9.7,1.2c-3.2,0.4-6.5,0.7-9.8,1.1l-19.5,2.1l-20,2.1l-20.3,2
					l-40.3,3.9c-26.8,2.5-53.3,5-79.6,6.9c-52.6,4-104.2,6.8-154.1,7s-98.2-1.6-143.4-7.3c-11.3-1.4-22.4-3-33.3-4.9
					c-2.7-0.4-5.4-1-8.1-1.5s-5.4-1-8-1.5s-5.3-1-7.9-1.6l-7.8-1.7c-20.1-4.5-39.8-10.3-59.2-17.3c-18.1-6.6-35.7-14.5-52.6-23.8
					c-8.2-4.5-16.2-9.3-24-14.4s-15.2-10.5-22.7-16.2c-29.8-23-58.1-51.5-83-83.6c-25.3-32.4-46.3-67.9-62.6-105.6
					c-4.2-9.5-7.7-19.2-11.1-29l-2.5-7.4c-0.8-2.5-1.5-5-2.2-7.5l-1.1-3.8l-1-3.8c-0.7-2.5-1.4-5-2.1-7.6
					c-1.2-5.1-2.5-10.2-3.4-15.3c-0.5-2.6-1.2-5.2-1.6-7.8l-1.4-7.8c-0.4-2.6-0.7-5.3-1.1-7.9l-0.6-4l-0.4-4
					c-0.3-2.7-0.6-5.4-0.8-8.1l-0.6-8.2c-0.5-10.9-0.9-22.1-0.5-33.4s1.2-22.7,2.6-34.2s3.4-23.1,5.8-34.8
					c1.3-5.8,2.6-11.7,4.1-17.4c0.8-2.9,1.5-5.8,2.4-8.7s1.6-5.8,2.6-8.7c3.5-11.6,7.6-23.1,12.1-34.6s9.6-22.7,15.2-33.9
					c11.2-22.3,24.5-43.6,39.6-63.5c1.9-2.5,3.9-4.9,5.8-7.4s4-4.8,6-7.2s4.1-4.6,6.2-7c1-1.2,2.1-2.3,3.1-3.5l3.3-3.4l3.3-3.4
					c1.1-1.1,2.2-2.3,3.3-3.3c2.3-2.2,4.5-4.4,6.8-6.5s4.7-4.2,7.1-6.3c1.2-1,2.4-2.1,3.6-3.1l3.7-3c9.8-8.1,20.1-15.6,30.9-22.4
					c10.8-7,22-13.4,33.5-19.1c11.6-5.8,23.6-11,35.8-15.6c12.2-4.7,24.7-8.7,37.4-12.2c20.9-5.8,42.2-10.1,63.7-13.1l0,0
					c6.6-3.4,3.6-13.5-3.8-12.7C428.2,1055.3,339.3,1087.9,267.7,1151.2z"/>
			</g>
		</g>
	</g>
</g>
<g>
	<path class="st1" d="M731-1500.6c14.9,9.7,30.3,18.5,46,26.6c31,15.9,63.5,28.9,97,38.7c16.4,4.9,32.9,8.9,49.4,12.2s32.8,6,49.1,8
		c8.1,1,16.3,1.8,24.4,2.5c4,0.4,8.1,0.7,12.1,0.9s8.1,0.5,12.1,0.7c8,0.4,16,0.7,24,0.8c7.9,0.2,15.8,0.1,23.7,0
		c15.7-0.3,31.3-0.9,46.7-2c7.7-0.6,15.3-1.2,22.9-2c3.8-0.4,7.6-0.8,11.4-1.2c3.8-0.4,7.6-0.8,11.3-1.3c15.1-1.8,29.9-4.1,44.6-6.6
		c7.4-1.2,14.7-2.6,21.9-4c7.3-1.4,14.5-2.9,21.7-4.4c57.5-12.4,112.5-28.6,165.9-46.7c13.3-4.5,26.6-9.2,39.7-13.9
		c13.1-4.7,26.2-9.4,39.2-14.2s25.9-9.7,38.7-14.6l19.2-7.3l19.4-7.5l19.8-7.7c3.3-1.3,6.6-2.5,9.9-3.9l9.9-4.1l19.7-8.1l19.5-8.5
		l9.8-4.2l9.7-4.4c6.4-3,12.9-5.8,19.3-8.9l19-9l18.7-9.1l36.6-18l9-4.4l8.9-4.2c3-1.4,6-2.8,9-4.2l8.9-4l8.9-4l8.9-3.7
		c3-1.2,6-2.4,9-3.7s6-2.2,9-3.4c12-4.6,24.3-8.7,36.7-12.6l18.8-5.3c1.6-0.4,3.1-0.9,4.7-1.3l4.8-1.2l9.6-2.3
		c6.4-1.5,12.8-3.2,19.3-4.4l19.5-4l4.9-1l5-0.9l10-1.8c6.7-1.2,13.3-2.3,19.9-3.5s13.3-2.2,19.9-3.3s13.2-2.1,19.9-3
		s13.3-1.8,19.9-2.7l10-1.2l10-1.1c13.3-1.4,26.6-2.6,39.9-3.3c26.6-1.6,53.2-1.7,79.8-0.3l9.9,0.7l5,0.3l5,0.5l9.9,0.9l9.9,1.2
		l4.9,0.6c1.6,0.2,3.3,0.5,4.9,0.7l9.9,1.4c3.3,0.5,6.5,1.1,9.8,1.7s6.6,1.1,9.8,1.8l9.8,2c3.3,0.6,6.5,1.5,9.7,2.2s6.5,1.5,9.7,2.3
		l9.6,2.5l4.8,1.3l4.8,1.4l9.5,2.8c3.2,1,6.3,2.1,9.4,3.1s6.3,2,9.4,3.2c3.4,1.2,6.8,2.5,10.2,3.8l17-11l-40.5-10.3
		c-139.4-42.1-268.2-28.7-379.6-17.1c-179.4,18.7-204.5,59.4-403.4,106.9c-245.4,58.6-616.9,5.1-828.6-150.4"/>
	<path class="st1" d="M2668.1-1522.9c0,0-1.8-1.9-23.6-19.7c-43.8-35.7-91-66.8-141.1-93c-24.6-13-49.7-24.7-74.9-35.6
		c-25.4-11-51.3-20.7-77.6-29.1c-13.8-4.4-27.6-8.4-41.6-11.9l-28.7,7.8l48.9,10.6c33.1,10,65.4,22.7,96.5,38
		c57.3,28.1,136.2,69,244.5,194.4"/>
	<path class="st2" d="M2670.6-1461.3c-105.1-130.1-187.2-166.3-244.6-194.4c-21.5-10.6-43.6-19.9-66.1-28c-7-2.5-12.3,6.4-6.9,11.3
		l0,0c21.4,8.1,42.2,17.5,62.4,28.3c23.5,12.3,46.2,26.2,67.9,41.4l4.1,2.8l4,2.9c2.7,2,5.3,3.9,7.9,5.9l7.8,6l7.7,6.2
		c10.1,8.3,20,16.9,29.5,25.9c2.4,2.2,4.7,4.5,7,6.8s4.7,4.5,6.9,6.9c4.5,4.7,9.1,9.3,13.4,14.2c8.8,9.5,17,19.5,25,29.6
		c7.8,10.2,15.4,20.6,22.3,31.3l5.2,8l5,8.2l2.5,4.1l1.2,2l1.2,2.1l4.6,8.3l2.3,4.1l2.2,4.2l4.3,8.4c1.5,2.8,2.8,5.6,4.1,8.5
		s2.6,5.7,3.9,8.5c0.7,1.4,1.3,2.9,1.9,4.3l1.8,4.3l3.6,8.6c2.2,5.8,4.4,11.6,6.5,17.4l5.8,17.6"/>
	<path class="st2" d="M718.2-1754.3c0,0,1.8,89.2,66.5,126.3c211.6,155.5,516.6,82.7,762.1,24.1c199-47.5,224-88.2,403.4-106.9
		c104.4-10.9,224-23.3,353.1,9.8c3.5,0.9,7-1.2,7.9-4.6c0.6-2.3-0.1-4.8-1.9-6.5l0,0c-12.7-3.2-25.5-6.2-38.4-8.8
		c-3.4-0.8-6.8-1.3-10.1-2c-3.4-0.7-6.8-1.3-10.2-1.9c-6.8-1.1-13.6-2.3-20.4-3.3l-10.2-1.5l-10.2-1.3l-5.1-0.7l-5.1-0.6l-10.3-1.1
		c-54.8-5.5-110-6.1-164.8-4.9c-13.7,0.2-27.4,0.7-41,1.1l-20.4,0.6l-10.2,0.3l-5.1,0.2l-5.2,0.2l-20.8,0.8
		c-6.9,0.2-13.9,0.7-20.9,1.1l-10.5,0.6l-5.2,0.3c-1.8,0.1-3.5,0.3-5.3,0.5l-21.1,1.9c-14.1,1.7-28.3,3.1-42.4,5.4
		c-3.5,0.6-7.1,1-10.6,1.7l-10.6,1.9l-10.6,1.9l-10.4,2.1l-10.5,2.1c-3.5,0.7-6.9,1.5-10.3,2.2l-10.3,2.2l-10.2,2.2l-20.1,4.5
		l-9.9,2.2l-5,1.1l-4.9,1l-19.6,4.1l-19.4,3.8c-6.5,1.2-13,2.3-19.4,3.4l-9.7,1.7l-9.7,1.5l-19.4,2.9l-19.5,2.5l-9.7,1.2
		c-3.2,0.4-6.5,0.7-9.8,1.1l-19.5,2.1l-20,2.1l-20.3,2l-40.3,3.9c-26.8,2.5-53.3,5-79.6,6.9c-52.6,4-104.2,6.8-154.1,7
		s-98.2-1.6-143.4-7.3c-11.3-1.4-22.4-3-33.3-4.9c-2.7-0.4-5.4-1-8.1-1.5s-5.4-1-8-1.5s-5.3-1-7.9-1.6l-7.8-1.7
		c-20.1-4.5-39.8-10.3-59.2-17.3c-18.1-6.6-35.7-14.5-52.6-23.8c-8.2-4.5-16.2-9.3-24-14.4s-15.2-10.5-22.7-16.2
		c-29.8-23-58.1-51.5-83-83.6c-25.3-32.4-46.3-67.9-62.6-105.6"/>
</g>
<g>
	<path class="st1" d="M2741.4-2581.1c-52.4,50-30.7,40.1-394.5,265c-583,270.7-1275.4,280.6-1681.8,259.4l-0.4,5.7
		c13.5,0.4,27,1.2,40.6,2s27,1.6,40.5,2.5s27,1.8,40.5,2.7c13.5,0.9,27,1.8,40.5,2.8l162.5,11.4l20.4,1.4l20.4,1.3
		c13.6,0.8,27.2,1.9,40.8,2.6s27.2,1.7,40.9,2.4l20.5,1l20.5,1.1c54.6,2.5,109.4,4.7,164.4,5.9c55,1.1,110.2,1.7,165.6,1.2
		c6.9,0,13.8-0.1,20.8-0.3l20.8-0.4l20.8-0.4c6.9-0.1,13.9-0.4,20.8-0.7l41.7-1.3l41.8-2l10.5-0.5c3.5-0.2,7-0.3,10.5-0.6l20.9-1.4
		l20.9-1.4c7-0.5,14-0.9,21-1.5l41.9-3.6l10.5-0.9c3.5-0.3,7-0.7,10.5-1.1l21-2.2l21-2.2l10.5-1.1l10.5-1.3l41.9-5.5l10.5-1.4
		l10.5-1.6l21-3.3l21-3.3l10.5-1.7l10.4-1.9l20.9-3.8l20.9-3.9l10.5-2l10.4-2.2c7-1.4,13.9-3,20.8-4.5l20.8-4.5l10.4-2.3l10.4-2.5
		l41.5-10.3l10.4-2.6l10.3-2.9l20.6-5.8l20.6-5.9l10.3-3c3.4-1,6.8-2.1,10.2-3.2l20.5-6.5l20.5-6.6l10.2-3.3
		c3.4-1.1,6.8-2.4,10.2-3.5l20.3-7.2l20.3-7.3c6.7-2.5,13.5-4.8,20.2-7.5c13.4-5.3,26.8-10.6,40.1-16l10-4l5-2l5-2.1l19.9-8.6
		c13.2-5.7,26.4-11.9,39.6-17.9c3.3-1.5,6.6-3,9.9-4.6l9.9-4.8l19.7-9.6c3.3-1.6,6.5-3.3,9.8-5l9.8-5.1c6.5-3.4,13.1-6.7,19.6-10.3
		l19.5-10.7c3.2-1.8,6.5-3.6,9.7-5.4l9.7-5.6l19.3-11.3l19.2-11.8l9.6-5.9l9.5-6.2c6.4-4.1,12.7-8.2,19-12.5l18.9-13l4.7-3.3
		l4.7-3.4l9.3-6.8c25.3-18.5,5.6-1,28.8-21.9"/>
	<path class="st2" d="M2756.8-2857.7c-1,2.5-2.1,4.9-3.2,7.3l-3.3,7.2l-1.6,3.6c-0.5,1.2-1.2,2.4-1.8,3.5l-3.5,7.1l-1.7,3.5
		c-0.6,1.2-1.2,2.3-1.8,3.4c-1.2,2.3-2.4,4.6-3.6,6.8l-3.7,6.7c-1.3,2.2-2.6,4.3-3.9,6.5s-2.6,4.3-3.9,6.4s-2.6,4.2-4,6.3l-4.1,6.2
		c-1.4,2.1-2.8,4.1-4.2,6.1l-2.1,3c-0.7,1-1.5,2-2.2,3c-1.5,2-2.9,4-4.3,6l-4.5,5.9l-2.2,2.9c-0.7,1-1.6,1.9-2.3,2.9l-4.6,5.8
		c-1.5,1.9-3.2,3.8-4.8,5.7l-2.4,2.9c-0.8,1-1.6,1.9-2.4,2.9l-5,5.6l-2.5,2.8l-2.6,2.8c-13.7,14.9-28.4,29.5-44.2,43.8
		s-32.5,28.4-50,42.3s-35.9,27.5-54.8,41l-7.1,5.1c-1.2,0.9-2.4,1.7-3.6,2.5l-3.7,2.5l-14.6,10c-4.9,3.3-9.9,6.6-14.9,9.9l-7.4,4.9
		l-7.6,4.8l-15.2,9.7l-15.5,9.5l-7.7,4.8c-2.6,1.6-5.3,3.1-7.9,4.7l-15.8,9.4c-2.6,1.6-5.3,3.1-8,4.6l-8,4.6
		c-5.4,3.1-10.6,6.2-16.1,9.2l-16.3,9.1l-8.1,4.6c-2.7,1.5-5.5,3-8.2,4.5c-11,5.9-21.9,12.1-33.1,17.9l-16.7,8.9l-4.2,2.2l-4.2,2.1
		l-8.5,4.3c-11.3,5.7-22.6,11.6-33.8,17.4c-5.6,3-11.4,5.7-17,8.5l-17.1,8.4c-91.2,45.3-185.4,87.1-282,126.4l-9,3.7l-9.1,3.6
		l-18.2,7.1l-18.3,7.2l-9.1,3.6l-9.2,3.4l-36.9,13.8l-9.2,3.5l-9.3,3.3l-18.6,6.6c-24.8,9.1-49.8,17.2-74.9,25.8
		c-6.3,2.2-12.6,4.1-18.9,6.1l-18.9,6l-19,6.1c-3.2,1-6.3,2-9.5,2.9l-9.6,2.9c-50.8,15.7-102.4,29.5-154.3,42.6l-19.5,4.7l-19.6,4.6
		c-3.3,0.8-6.5,1.6-9.8,2.3l-9.8,2.2l-19.7,4.3c-26.2,5.9-52.5,11-78.9,16.2c-26.4,4.8-52.9,9.7-79.5,13.9l-19.9,3.2
		c-6.7,1-13.3,2-20,3l-20,2.8c-6.7,0.9-13.3,1.9-20,2.8c-53.5,7.1-107.2,12.8-161.1,16.9c-53.9,4.1-107.9,6.5-162,6.9
		c-13.5,0.1-27,0-40.5-0.1s-27-0.5-40.5-0.9s-27-1.1-40.5-1.8s-27-1.8-40.4-3l-0.3,4.3c406.4,21.4,1098.8,11.5,1681.8-259.2
		c291.3-142.7,394.5-265,394.5-265"/>
</g>
<g>
	<path class="st1" d="M2327-1775.2c3.8,1.3,7.5,2.5,11.3,3.7l5.6,1.8c1.9,0.6,3.7,1.1,5.6,1.7c1.9,0.6,3.7,1.1,5.6,1.6
		c1.9,0.5,3.7,1,5.6,1.5l11.2,2.9c7.4,1.8,14.9,3.5,22.2,5c7.4,1.5,14.7,2.9,22.1,4.2c14.7,2.5,29.3,4.6,43.8,6.4
		c29,3.5,57.6,5.6,85.8,7.2c14.2,0.7,28.2,1.4,42.2,1.8l10.5,0.4l10.5,0.3l20.9,0.7c55.5,1.6,110.2,3,164.6,5.9
		c27.2,1.5,54.3,3.3,81.3,5.4c13.5,1.1,27,2.3,40.5,3.6l40.4,3.7c32.1,3,64.2,6.1,96.3,9.4l31.8-15l-74.8-2.3
		c-357.6-31-549.3-72-679.9-143.2"/>
	<path class="st1" d="M3857.9-1598.6c-14.2-5-84.8-55.3-160.8-78.5c-14-4.3-28.2-7.1-42.3-10.1s-28.1-5.5-42-7.8
		c-7-1.1-14-2.2-20.9-3.2s-13.9-2-20.8-3c-6.9-0.9-13.9-1.8-20.8-2.6c-6.9-0.8-13.8-1.6-20.7-2.4c-27.6-2.9-55.1-5.3-82.5-7.3
		c-54.8-3.9-109.3-6.7-163.6-9.3c-54.3-2.6-108.5-5.1-162.5-8.2c-50.4-2.9-100.8-6.3-151-10.5l-49.3,13.7l89.5,2.6
		c389.2,33.8,786.8,56.6,847.8,244.8"/>
	<path class="st2" d="M2330.1-1868.4c62.9,67.3,294.5,108.7,636.7,139.4c7.4,0.7,9.9-9.6,3-12.4l0,0l-10.8-0.9
		c-13.5-1.2-26.9-2.4-40.3-3.8c-13.4-1.3-26.9-2.7-40.3-4.3c-26.8-3.2-53.5-7.3-80.1-12.1c-26.6-4.8-52.9-10.6-79.1-17.3
		c-26.2-6.7-52-14.3-77.6-22.8c-25.5-8.6-50.6-18-75.1-28.4l-9.2-3.9l-9.1-4c-6.1-2.6-12-5.4-18-8.2c-11.9-5.7-23.5-11.4-35-17.4
		c-22.9-12-44.7-24.8-64.9-38.2l-7.5-5.1c-2.5-1.7-4.9-3.5-7.3-5.2c-1.2-0.8-2.4-1.7-3.6-2.5l-3.5-2.6c-2.4-1.7-4.7-3.4-6.9-5.2
		c-2.2-1.8-4.6-3.5-6.7-5.2l-6.5-5.3c-2.1-1.8-4.1-3.6-6.2-5.3c-2.1-1.7-4-3.6-6-5.3c-7.4-6.8-14.5-14-21.1-21.5
		c-5.9-6.6-11.2-13.6-16-21c-4.1-6.2-7.6-12.8-10.6-19.7"/>
	<path class="st2" d="M3857.9-1480.3c-58.6-180.8-427.7-209-801.8-240.9c-8-0.7-10.6,10.4-3.2,13.4l0,0c21.8,2.3,43.5,4.6,65.2,7.1
		c53.7,6.2,107.3,13.2,160.6,21.7c53.3,8.4,106.3,18.2,158.5,30.2c13,3,26,6.1,39,9.4s25.8,6.7,38.5,10.3
		c25.5,7.2,50.7,15,75.2,23.7c12.2,4.4,24.3,8.9,36.2,13.7c11.9,4.8,23.5,9.9,34.8,15.2c22.6,10.7,43.9,22.6,62.6,35.7
		s90.6,65.6,134.3,179.6"/>
</g>
<g>
	<path class="st1" d="M336.3-1310.8c-14.9,9.7-30.3,18.5-46,26.6c-31,15.9-63.5,28.9-97,38.7c-16.4,4.9-32.9,8.9-49.4,12.2
		s-32.9,6-49.1,8c-8.1,1-16.3,1.8-24.4,2.5c-4,0.4-8.1,0.7-12.1,0.9s-8.1,0.5-12.1,0.7c-8,0.4-16,0.7-24,0.8s-15.8,0.1-23.7,0
		c-15.7-0.3-31.3-0.9-46.7-2c-7.7-0.6-15.3-1.2-22.9-2c-3.8-0.4-7.6-0.8-11.4-1.2c-3.8-0.4-7.6-0.8-11.3-1.3
		c-15.1-1.8-29.9-4.1-44.6-6.6c-7.4-1.2-14.7-2.6-21.9-4s-14.5-2.9-21.7-4.4c-57.5-12.4-112.5-28.6-165.9-46.7
		c-13.3-4.5-26.6-9.2-39.7-13.9c-13.1-4.7-26.2-9.4-39.2-14.2s-25.9-9.7-38.7-14.6l-19.2-7.3l-19.4-7.5l-19.8-7.7
		c-3.3-1.3-6.6-2.5-9.9-3.9l-9.9-4.1l-19.7-8.1l-19.5-8.5l-9.8-4.2l-9.7-4.4c-6.4-3-12.9-5.8-19.3-8.9l-19-9l-18.7-9.1l-36.6-18
		l-9-4.4l-8.9-4.2c-3-1.4-6-2.8-9-4.2l-8.9-4l-8.9-4l-8.9-3.7c-3-1.2-6-2.4-9-3.7s-6-2.2-9-3.4c-12-4.6-24.3-8.7-36.7-12.6
		l-18.8-5.3c-1.6-0.4-3.1-0.9-4.7-1.3l-4.8-1.2l-9.6-2.3c-6.4-1.5-12.8-3.2-19.3-4.4l-19.5-4l-4.9-1l-5-0.9l-10-1.8
		c-6.7-1.2-13.3-2.3-19.9-3.5s-13.3-2.2-19.9-3.3s-13.2-2.1-19.9-3s-13.3-1.8-19.9-2.7l-10-1.2l-10-1.1c-13.3-1.4-26.6-2.6-39.9-3.3
		c-26.6-1.6-53.2-1.7-79.8-0.3l-9.9,0.7l-5,0.3l-5,0.5l-9.9,0.9l-9.9,1.2l-4.9,0.6c-1.7,0.2-3.3,0.5-4.9,0.7l-9.8,1.4
		c-3.3,0.5-6.5,1.1-9.8,1.7s-6.6,1.1-9.8,1.8l-9.8,2c-3.3,0.6-6.5,1.5-9.7,2.2s-6.5,1.5-9.7,2.3l-9.6,2.5l-4.8,1.3l-4.8,1.4
		l-9.5,2.8c-3.2,1-6.3,2.1-9.4,3.1s-6.3,2-9.4,3.2c-3.4,1.2-6.8,2.5-10.2,3.8l-17-11l40.5-10.3c139.4-42.1,268.2-28.7,379.6-17.1
		c179.4,18.7,204.5,59.4,403.4,106.9c245.4,58.6,616.9,5.1,828.6-150.4"/>
	<path class="st1" d="M-1600.8-1333.1c0,0,1.8-1.9,23.6-19.7c43.8-35.7,91-66.8,141.1-93c24.6-13,49.7-24.7,74.9-35.6
		c25.4-11,51.3-20.7,77.6-29.1c13.8-4.4,27.7-8.4,41.7-11.9l28.7,7.8l-48.9,10.6c-33.1,10-65.4,22.7-96.5,38
		c-57.3,28.1-136.2,69-244.5,194.4"/>
	<path class="st2" d="M-1603.3-1271.5c105.1-130.1,187.2-166.3,244.6-194.4c21.5-10.6,43.6-19.9,66.2-28c7-2.5,12.3,6.4,6.8,11.3
		l0,0c-21.4,8.1-42.2,17.5-62.4,28.3c-23.5,12.3-46.2,26.2-67.9,41.4l-4.1,2.8l-4,2.9c-2.7,2-5.3,3.9-7.9,5.9l-7.8,6l-7.7,6.2
		c-10.2,8.3-20,16.9-29.5,25.9c-2.4,2.2-4.7,4.5-7,6.8s-4.7,4.5-6.9,6.9c-4.5,4.7-9.1,9.3-13.4,14.2c-8.8,9.5-17,19.5-25,29.6
		c-7.8,10.2-15.4,20.6-22.3,31.3l-5.2,8l-5,8.2l-2.5,4.1l-1.2,2l-1.2,2.1l-4.6,8.3l-2.3,4.1l-2.2,4.2l-4.3,8.4
		c-1.5,2.8-2.8,5.6-4.1,8.5s-2.6,5.7-3.9,8.5c-0.7,1.4-1.3,2.9-1.9,4.3l-1.8,4.3l-3.6,8.6c-2.2,5.8-4.4,11.6-6.5,17.4l-5.8,17.6"/>
	<path class="st2" d="M349.2-1564.6c0,0-1.8,89.2-66.5,126.3c-211.6,155.5-516.7,82.7-762.1,24.1c-199-47.5-224-88.2-403.4-106.9
		c-104.4-10.9-224-23.3-353.1,9.8c-3.5,0.9-7-1.2-7.9-4.6c-0.6-2.3,0.1-4.8,1.9-6.5l0,0c12.7-3.2,25.5-6.2,38.4-8.8
		c3.4-0.8,6.8-1.3,10.1-2s6.8-1.3,10.2-1.9c6.8-1.1,13.6-2.3,20.4-3.3l10.2-1.5l10.2-1.3l5.1-0.7l5.1-0.6l10.3-1.1
		c54.8-5.5,110-6.1,164.7-4.9c13.7,0.2,27.4,0.7,41,1.1l20.4,0.6l10.2,0.3l5.1,0.2l5.2,0.2l20.8,0.8c6.9,0.2,13.9,0.7,20.9,1.1
		l10.5,0.6l5.2,0.3c1.8,0.1,3.5,0.3,5.3,0.5l21.1,1.9c14.1,1.7,28.3,3.1,42.4,5.4c3.5,0.6,7.1,1,10.6,1.7l10.6,1.9l10.6,1.9
		l10.4,2.1l10.5,2.1c3.5,0.7,6.9,1.5,10.3,2.2l10.3,2.2l10.2,2.2l20.1,4.5l9.9,2.2l5,1.1l4.9,1l19.6,4.1l19.4,3.8
		c6.5,1.2,13,2.3,19.4,3.4l9.7,1.7l9.7,1.5l19.4,2.9l19.5,2.5l9.7,1.2c3.2,0.4,6.5,0.7,9.8,1.1l19.5,2.1l20,2.1l20.3,2l40.3,3.9
		c26.8,2.5,53.3,5,79.6,6.9c52.6,4,104.2,6.8,154.1,7s98.2-1.6,143.4-7.3c11.3-1.4,22.4-3,33.3-4.9c2.7-0.4,5.4-1,8.1-1.5
		s5.4-1,8-1.5s5.3-1,7.9-1.6l7.8-1.7c20.1-4.5,39.8-10.3,59.2-17.3c18.1-6.6,35.7-14.5,52.6-23.8c8.2-4.5,16.2-9.3,24-14.4
		s15.2-10.5,22.7-16.2c29.8-23,58.1-51.5,83-83.6c25.3-32.4,46.3-67.9,62.6-105.6"/>
</g>
<g>
	<path class="st1" d="M-1674-2391.3c52.4,50,30.7,40.1,394.5,265c583,270.7,1275.4,280.6,1681.8,259.4l0.4,5.7
		c-13.5,0.4-27,1.2-40.6,2s-27,1.6-40.5,2.5s-27,1.8-40.5,2.7s-27,1.8-40.6,2.8L78-1839.8l-20.4,1.4l-20.4,1.3
		c-13.6,0.8-27.2,1.9-40.8,2.6s-27.2,1.7-40.9,2.4l-20.5,1l-20.5,1.1c-54.6,2.5-109.4,4.7-164.4,5.9c-55,1.1-110.2,1.7-165.6,1.2
		c-6.9,0-13.8-0.1-20.8-0.3l-20.8-0.4l-20.8-0.4c-6.9-0.1-13.9-0.4-20.8-0.7l-41.7-1.3l-41.8-2l-10.5-0.5c-3.5-0.2-7-0.3-10.5-0.6
		l-20.9-1.4l-20.9-1.4c-7-0.5-14-0.9-21-1.5l-41.9-3.6l-10.5-0.9c-3.5-0.3-7-0.7-10.5-1.1l-21-2.2l-21-2.2l-10.5-1.1l-10.5-1.3
		l-41.9-5.5l-10.5-1.4l-10.5-1.6l-21-3.3l-21-3.3l-10.5-1.7l-10.4-1.9l-20.9-3.8l-20.9-3.9l-10.5-2l-10.4-2.2
		c-7-1.4-13.9-3-20.8-4.5l-20.8-4.5l-10.4-2.3l-10.4-2.5l-41.5-10.3l-10.4-2.6l-10.3-2.9l-20.6-5.8l-20.6-5.9l-10.3-3
		c-3.4-1-6.8-2.1-10.2-3.2l-20.5-6.5l-20.5-6.6l-10.2-3.3c-3.4-1.1-6.8-2.4-10.2-3.5l-20.3-7.2l-20.3-7.3
		c-6.7-2.5-13.5-4.8-20.2-7.5c-13.4-5.3-26.8-10.6-40.1-16l-10-4l-5-2l-5-2.1l-19.9-8.6c-13.2-5.7-26.4-11.9-39.6-17.9
		c-3.3-1.5-6.6-3-9.9-4.6l-9.9-4.8l-19.7-9.6c-3.3-1.6-6.5-3.3-9.8-5l-9.8-5.1c-6.5-3.4-13.1-6.7-19.6-10.3l-19.5-10.7
		c-3.2-1.8-6.5-3.6-9.7-5.4l-9.7-5.6l-19.3-11.3l-19.2-11.8l-9.6-5.9l-9.5-6.2c-6.4-4.1-12.7-8.2-19-12.5l-18.9-13l-4.7-3.3
		l-4.7-3.4l-9.3-6.8c-25.3-18.5-5.6-1-28.8-21.9"/>
	<path class="st2" d="M-1689.4-2668c1,2.5,2.1,4.9,3.2,7.3l3.3,7.2l1.6,3.6c0.5,1.2,1.2,2.4,1.8,3.5l3.5,7.1l1.7,3.5
		c0.6,1.2,1.2,2.3,1.8,3.4c1.2,2.3,2.4,4.6,3.6,6.8l3.7,6.7c1.3,2.2,2.6,4.3,3.9,6.5s2.6,4.3,3.9,6.4s2.6,4.2,4,6.3l4.1,6.2
		c1.4,2.1,2.8,4.1,4.2,6.1l2.1,3c0.7,1,1.5,2,2.2,3c1.5,2,2.9,4,4.3,6l4.5,5.9l2.2,2.9c0.7,1,1.6,1.9,2.3,2.9l4.6,5.8
		c1.5,1.9,3.2,3.8,4.8,5.7l2.4,2.9c0.8,1,1.6,1.9,2.4,2.9l5,5.6l2.5,2.8l2.6,2.8c13.7,14.9,28.4,29.5,44.2,43.8
		c15.8,14.3,32.5,28.4,50,42.3s35.9,27.5,54.8,41l7.1,5.1c1.2,0.9,2.3,1.7,3.6,2.5l3.7,2.5l14.6,10c4.9,3.3,9.9,6.6,14.9,9.9
		l7.4,4.9l7.6,4.8l15.2,9.7l15.5,9.5l7.7,4.8c2.6,1.6,5.3,3.1,7.9,4.7l15.8,9.4c2.6,1.6,5.3,3.1,8,4.6l8,4.6
		c5.4,3.1,10.6,6.2,16.1,9.2l16.3,9.1l8.1,4.6c2.7,1.5,5.5,3,8.2,4.5c11,5.9,21.9,12.1,33.2,17.9l16.7,8.9l4.2,2.2l4.2,2.1l8.5,4.3
		c11.3,5.7,22.6,11.6,33.8,17.4c5.6,3,11.3,5.7,17,8.5l17.1,8.4c91.2,45.3,185.4,87.1,282,126.4l9,3.7l9.1,3.6l18.2,7.1l18.3,7.2
		l9.1,3.6l9.2,3.4l36.9,13.8l9.2,3.5l9.3,3.3l18.6,6.6c24.8,9.1,49.8,17.2,74.9,25.8c6.3,2.2,12.6,4.1,18.9,6.1l18.9,6l19,6.1
		c3.2,1,6.3,2,9.5,2.9l9.6,2.9c50.8,15.7,102.4,29.5,154.3,42.6l19.5,4.7l19.5,4.6c3.3,0.8,6.5,1.6,9.8,2.3l9.8,2.2l19.7,4.3
		c26.2,5.9,52.5,11,78.9,16.2c26.4,4.8,52.9,9.7,79.5,13.9l20,3.2c6.7,1,13.3,2,20,3l20,2.8c6.7,0.9,13.3,1.9,20,2.8
		c53.5,7.1,107.1,12.8,161.1,16.9c53.9,4.1,107.9,6.5,162,6.9c13.5,0.1,27,0,40.5-0.1s27-0.5,40.5-0.9s27-1.1,40.5-1.8
		c13.5-0.7,27-1.8,40.4-3l0.3,4.3c-406.4,21.4-1098.8,11.5-1681.8-259.2c-291.3-142.7-394.5-265-394.5-265"/>
</g>
<g>
	<path class="st1" d="M-1259.6-1585.4c-3.8,1.3-7.5,2.5-11.3,3.7l-5.6,1.8c-1.9,0.6-3.7,1.1-5.6,1.7s-3.7,1.1-5.6,1.6
		s-3.7,1-5.6,1.5l-11.2,2.9c-7.5,1.8-14.9,3.5-22.2,5s-14.7,2.9-22.1,4.2c-14.7,2.5-29.3,4.6-43.8,6.4c-29,3.4-57.5,5.6-85.8,7.2
		c-14.2,0.7-28.2,1.4-42.2,1.8l-10.5,0.4l-10.5,0.3l-20.9,0.7c-55.5,1.6-110.2,3-164.6,5.9c-27.2,1.5-54.3,3.3-81.3,5.4
		c-13.5,1.1-27,2.3-40.5,3.6l-40.4,3.7c-32.1,3-64.2,6.1-96.3,9.4l-31.8-15l74.8-2.3c357.6-31,549.3-72,679.9-143.2"/>
	<path class="st1" d="M-2790.6-1408.8c14.2-5,84.8-55.3,160.8-78.5c14-4.3,28.2-7.1,42.3-10.1s28.1-5.5,42-7.8
		c7-1.1,14-2.2,20.9-3.2s13.9-2,20.8-2.9c6.9-1,13.9-1.8,20.8-2.6c6.9-0.8,13.8-1.6,20.7-2.4c27.6-2.9,55.1-5.3,82.5-7.3
		c54.8-3.9,109.3-6.7,163.6-9.3c54.3-2.6,108.5-5.1,162.5-8.2c50.4-2.9,100.8-6.3,151-10.5l49.3,13.7l-89.5,2.6
		c-389.2,33.8-786.8,56.6-847.8,244.8"/>
	<path class="st2" d="M-1262.7-1678.6c-62.9,67.3-294.5,108.7-636.7,139.4c-7.4,0.7-9.9-9.6-3-12.4l0,0l10.8-0.9
		c13.5-1.2,26.9-2.4,40.3-3.8c13.4-1.3,26.9-2.7,40.3-4.3c26.8-3.2,53.5-7.3,80.1-12.1c26.6-4.8,52.9-10.6,79.1-17.3
		c26.2-6.7,52-14.3,77.5-22.8c25.5-8.6,50.6-18,75.1-28.4l9.2-3.9l9.1-4c6.1-2.6,12-5.4,18-8.2c11.9-5.7,23.6-11.4,35-17.4
		c22.9-12,44.7-24.8,64.9-38.2l7.5-5.1c2.5-1.7,4.8-3.5,7.3-5.2c1.2-0.8,2.4-1.7,3.6-2.6l3.5-2.6c2.3-1.7,4.7-3.4,6.9-5.2
		c2.2-1.8,4.6-3.4,6.7-5.2l6.5-5.3c2.1-1.8,4.1-3.6,6.2-5.3s4-3.6,6-5.3c7.4-6.8,14.5-14,21.1-21.5c5.9-6.6,11.2-13.6,16-21
		c4.1-6.2,7.6-12.8,10.6-19.7"/>
	<path class="st2" d="M-2790.6-1290.5c58.6-180.8,427.7-209,801.8-240.9c8-0.7,10.6,10.4,3.2,13.4l0,0c-21.8,2.3-43.5,4.6-65.2,7.1
		c-53.7,6.2-107.3,13.2-160.6,21.7s-106.3,18.2-158.5,30.2c-13,3-26,6.1-39,9.4s-25.8,6.7-38.5,10.3c-25.5,7.2-50.7,15-75.2,23.7
		c-12.2,4.4-24.3,8.9-36.2,13.7c-11.9,4.8-23.5,9.9-34.8,15.2c-22.6,10.7-43.9,22.6-62.6,35.7s-90.6,65.6-134.3,179.6"/>
</g>
<g>
	<path class="st2" d="M336.3-4250.8c-14.9-9.7-30.3-18.5-46-26.6c-31-15.9-63.5-28.9-97-38.6c-16.4-4.9-32.9-8.9-49.4-12.2
		s-32.9-6-49.1-8c-8.1-1-16.3-1.8-24.4-2.5c-4-0.4-8.1-0.7-12.1-0.9c-4-0.3-8.1-0.5-12.1-0.7c-8-0.4-16-0.7-24-0.8s-15.8-0.1-23.7,0
		c-15.7,0.3-31.3,0.9-46.7,2c-7.7,0.6-15.3,1.2-22.9,2c-3.8,0.4-7.6,0.8-11.4,1.2c-3.8,0.4-7.6,0.8-11.3,1.3
		c-15.1,1.8-29.9,4.1-44.6,6.6c-7.4,1.2-14.7,2.6-21.9,4s-14.5,2.9-21.7,4.4c-57.5,12.4-112.5,28.6-165.9,46.7
		c-13.3,4.5-26.6,9.2-39.7,13.9c-13.1,4.7-26.2,9.4-39.2,14.2c-13,4.9-25.9,9.7-38.7,14.6l-19.2,7.3l-19.4,7.5l-19.8,7.7
		c-3.3,1.3-6.6,2.5-9.9,3.9l-9.9,4.1l-19.7,8.1l-19.5,8.5l-9.8,4.2l-9.7,4.4c-6.4,3-12.9,5.8-19.3,8.9l-19,9l-18.7,9.1l-36.6,18
		l-9,4.4l-8.9,4.2c-3,1.4-6,2.8-9,4.2l-8.9,4l-8.9,4l-8.9,3.7c-3,1.2-6,2.4-9,3.7c-3,1.2-6,2.2-9,3.4c-12,4.6-24.3,8.7-36.7,12.6
		l-18.8,5.3c-1.6,0.4-3.1,0.9-4.7,1.3l-4.8,1.2l-9.6,2.3c-6.4,1.5-12.8,3.2-19.3,4.4l-19.5,4l-4.9,1l-5,0.9l-10,1.8
		c-6.7,1.2-13.3,2.4-19.9,3.5c-6.6,1.1-13.3,2.2-19.9,3.3s-13.2,2.1-19.9,3c-6.6,0.9-13.3,1.8-19.9,2.7l-10,1.2l-10,1.1
		c-13.3,1.4-26.6,2.6-39.9,3.3c-26.6,1.6-53.2,1.7-79.8,0.3l-9.9-0.7l-5-0.3l-5-0.5l-9.9-0.9l-9.9-1.2l-4.9-0.6
		c-1.7-0.2-3.3-0.5-4.9-0.7l-9.8-1.4c-3.3-0.5-6.5-1.1-9.8-1.7s-6.6-1.1-9.8-1.8l-9.8-2c-3.3-0.6-6.5-1.5-9.7-2.2s-6.5-1.5-9.7-2.3
		l-9.6-2.5l-4.8-1.3l-4.8-1.4l-9.5-2.8c-3.2-1-6.3-2.1-9.4-3.1s-6.3-2-9.4-3.2c-3.4-1.2-6.8-2.5-10.2-3.8l-17,11l40.5,10.3
		c139.4,42.1,268.2,28.7,379.6,17.1c179.4-18.7,204.5-59.4,403.4-106.9c245.4-58.6,616.9-5.1,828.6,150.4"/>
	<path class="st2" d="M-1600.8-4228.5c0,0,1.8,1.9,23.6,19.7c43.8,35.7,91,66.8,141.1,93c24.6,13,49.7,24.7,74.9,35.5
		c25.4,11,51.3,20.7,77.6,29.1c13.8,4.4,27.7,8.4,41.7,11.9l28.7-7.8l-48.9-10.6c-33.1-10-65.4-22.7-96.5-38
		c-57.3-28.1-136.2-69-244.5-194.4"/>
	<path class="st1" d="M-1603.3-4290.1c105.1,130.1,187.2,166.3,244.6,194.4c21.5,10.6,43.6,19.9,66.2,28c7,2.5,12.3-6.4,6.8-11.3
		l0,0c-21.4-8.1-42.2-17.5-62.4-28.3c-23.5-12.3-46.2-26.2-67.9-41.4l-4.1-2.8l-4-2.9c-2.7-2-5.3-3.9-7.9-5.9l-7.8-6l-7.7-6.2
		c-10.2-8.3-20-16.9-29.5-25.9c-2.4-2.2-4.7-4.5-7-6.8s-4.7-4.5-6.9-6.9c-4.5-4.7-9.1-9.4-13.4-14.2c-8.8-9.5-17-19.5-25-29.6
		c-7.8-10.2-15.4-20.5-22.3-31.3l-5.2-8l-5-8.2l-2.5-4.1l-1.2-2l-1.2-2.1l-4.6-8.3l-2.3-4.1l-2.2-4.2l-4.3-8.4
		c-1.5-2.8-2.8-5.6-4.1-8.5c-1.3-2.8-2.6-5.7-3.9-8.5c-0.7-1.4-1.3-2.9-1.9-4.3l-1.8-4.3l-3.6-8.6c-2.2-5.8-4.4-11.6-6.5-17.4
		l-5.8-17.6"/>
	<path class="st1" d="M349.2-3997c0,0-1.8-89.2-66.5-126.3C71.1-4278.7-234-4206-479.4-4147.4c-199,47.5-224,88.2-403.4,106.9
		c-104.4,10.9-224,23.3-353.1-9.8c-3.5-0.9-7,1.2-7.9,4.6c-0.6,2.3,0.1,4.8,1.9,6.5l0,0c12.7,3.2,25.5,6.2,38.4,8.8
		c3.4,0.8,6.8,1.3,10.1,2c3.4,0.7,6.8,1.3,10.2,1.9c6.8,1.1,13.6,2.3,20.4,3.3l10.2,1.5l10.2,1.3l5.1,0.7l5.1,0.6l10.3,1.1
		c54.8,5.5,110,6.1,164.7,4.9c13.7-0.2,27.4-0.7,41-1.1l20.4-0.6l10.2-0.3l5.1-0.1l5.2-0.2l20.8-0.8c6.9-0.2,13.9-0.7,20.9-1.1
		l10.5-0.6l5.2-0.3c1.8-0.1,3.5-0.3,5.3-0.5l21.1-1.9c14.1-1.6,28.3-3.1,42.4-5.4c3.5-0.6,7.1-1,10.6-1.7l10.6-1.9l10.6-1.9
		l10.4-2.1l10.5-2.1c3.5-0.7,6.9-1.5,10.3-2.2l10.3-2.2l10.2-2.2l20.1-4.5l9.9-2.2l5-1.1l4.9-1l19.6-4.1l19.4-3.8
		c6.5-1.2,13-2.3,19.4-3.4l9.7-1.7l9.7-1.5l19.4-2.9l19.5-2.5l9.7-1.2c3.2-0.4,6.5-0.7,9.8-1.1l19.5-2.1l20-2.1l20.3-2l40.3-3.9
		c26.8-2.5,53.3-5,79.6-6.9c52.6-4,104.2-6.8,154.1-7c49.9-0.2,98.2,1.6,143.4,7.3c11.3,1.4,22.4,3,33.3,4.9c2.7,0.4,5.4,1,8.1,1.5
		s5.4,1,8,1.5s5.3,1,7.9,1.6l7.8,1.7c20.1,4.5,39.8,10.3,59.2,17.3c18.1,6.6,35.7,14.5,52.6,23.8c8.2,4.5,16.2,9.3,24,14.4
		c7.8,5.1,15.2,10.5,22.7,16.2c29.8,23,58.1,51.5,83,83.6c25.3,32.4,46.3,67.9,62.6,105.6"/>
</g>
<g>
	<path class="st2" d="M-1674-3170.3c52.4-50,30.7-40.1,394.5-265c583-270.7,1275.4-280.6,1681.8-259.4l0.4-5.7
		c-13.5-0.4-27-1.2-40.6-2s-27-1.6-40.5-2.5s-27-1.8-40.5-2.7s-27-1.8-40.6-2.8L78-3721.8l-20.4-1.4l-20.4-1.3
		c-13.6-0.8-27.2-1.9-40.8-2.6s-27.2-1.7-40.9-2.4l-20.5-1l-20.5-1.1c-54.6-2.5-109.4-4.7-164.4-5.9c-55-1.1-110.2-1.7-165.6-1.2
		c-6.9,0-13.8,0.1-20.8,0.3l-20.8,0.4l-20.8,0.4c-6.9,0.1-13.9,0.4-20.8,0.7l-41.7,1.3l-41.8,2l-10.5,0.5c-3.5,0.2-7,0.3-10.5,0.6
		l-20.9,1.4l-20.9,1.4c-7,0.5-14,0.9-21,1.5l-41.9,3.6l-10.5,0.9c-3.5,0.3-7,0.7-10.5,1.1l-21,2.2l-21,2.2l-10.5,1.1l-10.5,1.3
		l-41.9,5.5l-10.5,1.4l-10.5,1.6l-21,3.3l-21,3.3l-10.5,1.7l-10.4,1.9l-20.9,3.8l-20.9,3.9l-10.5,2l-10.4,2.2
		c-7,1.4-13.9,3-20.8,4.5l-20.8,4.5l-10.4,2.3l-10.4,2.5l-41.5,10.3l-10.4,2.6l-10.3,2.9l-20.6,5.8l-20.6,5.9l-10.3,3
		c-3.4,1-6.8,2.1-10.2,3.2l-20.5,6.5l-20.5,6.6l-10.2,3.3c-3.4,1.1-6.8,2.4-10.2,3.5l-20.3,7.2l-20.3,7.3
		c-6.7,2.5-13.5,4.8-20.2,7.5c-13.4,5.3-26.8,10.6-40.1,16l-10,4l-5,2l-5,2.1l-19.9,8.6c-13.2,5.7-26.4,11.9-39.6,17.9
		c-3.3,1.5-6.6,3-9.9,4.6l-9.9,4.8l-19.7,9.6c-3.3,1.6-6.5,3.3-9.8,5l-9.8,5.1c-6.5,3.4-13.1,6.7-19.6,10.3l-19.5,10.7
		c-3.2,1.8-6.5,3.6-9.7,5.4l-9.7,5.6l-19.3,11.3l-19.2,11.8l-9.6,5.9l-9.5,6.2c-6.4,4.1-12.7,8.2-19,12.5l-18.9,13l-4.7,3.3
		l-4.7,3.4l-9.3,6.8c-25.3,18.5-5.6,1-28.8,21.9"/>
	<path class="st1" d="M-1689.4-2893.6c1-2.5,2.1-4.9,3.2-7.3l3.3-7.2l1.6-3.6c0.5-1.2,1.2-2.4,1.8-3.5l3.5-7.1l1.7-3.5
		c0.6-1.2,1.2-2.3,1.8-3.4c1.2-2.3,2.4-4.6,3.6-6.8l3.7-6.7c1.3-2.2,2.6-4.3,3.9-6.5s2.6-4.3,3.9-6.4s2.6-4.2,4-6.3l4.1-6.2
		c1.4-2.1,2.8-4.1,4.2-6.1l2.1-3c0.7-1,1.5-2,2.2-3c1.5-2,2.9-4,4.3-6l4.5-5.9l2.2-2.9c0.7-1,1.6-1.9,2.3-2.9l4.6-5.8
		c1.5-1.9,3.2-3.8,4.8-5.7l2.4-2.9c0.8-1,1.6-1.9,2.4-2.9l5-5.6l2.5-2.8l2.6-2.8c13.7-14.9,28.4-29.5,44.2-43.8
		c15.8-14.3,32.5-28.4,50-42.3s35.9-27.5,54.8-41l7.1-5.1c1.2-0.9,2.3-1.7,3.6-2.5l3.7-2.5l14.6-10c4.9-3.3,9.9-6.6,14.9-9.9
		l7.4-4.9l7.6-4.8l15.2-9.7l15.5-9.5l7.7-4.8c2.6-1.6,5.3-3.1,7.9-4.7l15.8-9.4c2.6-1.6,5.3-3.1,8-4.6l8-4.6
		c5.4-3.1,10.6-6.2,16.1-9.2l16.3-9.1l8.1-4.6c2.7-1.5,5.5-3,8.2-4.5c11-5.9,21.9-12.1,33.2-17.9l16.7-8.9l4.2-2.2l4.2-2.1l8.5-4.3
		c11.3-5.7,22.6-11.6,33.8-17.4c5.6-3,11.3-5.7,17-8.5l17.1-8.4c91.2-45.3,185.4-87.1,282-126.4l9-3.7l9.1-3.6l18.2-7.1l18.3-7.2
		l9.1-3.6l9.2-3.4l36.9-13.8l9.2-3.5l9.3-3.3l18.6-6.6c24.8-9.1,49.8-17.2,74.9-25.8c6.3-2.2,12.6-4.1,18.9-6.1l18.9-6l19-6.1
		c3.2-1,6.3-2,9.5-2.9l9.6-2.9c50.8-15.7,102.4-29.5,154.3-42.6l19.5-4.7l19.5-4.6c3.3-0.8,6.5-1.6,9.8-2.3l9.8-2.2l19.7-4.3
		c26.2-5.9,52.5-11,78.9-16.2c26.4-4.8,52.9-9.7,79.5-13.9l20-3.2c6.7-1,13.3-2,20-3l20-2.8c6.7-0.9,13.3-1.9,20-2.8
		c53.5-7.1,107.1-12.8,161.1-16.9c53.9-4.1,107.9-6.5,162-6.9c13.5-0.1,27,0,40.5,0.1s27,0.5,40.5,0.9s27,1.1,40.5,1.8
		s27,1.8,40.4,3l0.3-4.3c-406.4-21.4-1098.8-11.5-1681.8,259.2c-291.3,142.7-394.5,265-394.5,265"/>
</g>
<g>
	<path class="st2" d="M-1259.6-3976.2c-3.8-1.3-7.5-2.5-11.3-3.7l-5.6-1.8c-1.9-0.6-3.7-1.1-5.6-1.6s-3.7-1.1-5.6-1.6
		s-3.7-1-5.6-1.5l-11.2-2.9c-7.5-1.8-14.9-3.5-22.2-5s-14.7-2.9-22.1-4.2c-14.7-2.5-29.3-4.6-43.8-6.4c-29-3.4-57.5-5.6-85.8-7.2
		c-14.2-0.7-28.2-1.4-42.2-1.8l-10.5-0.4l-10.5-0.3l-20.9-0.7c-55.5-1.6-110.2-3-164.6-5.9c-27.2-1.5-54.3-3.3-81.3-5.4
		c-13.5-1.1-27-2.3-40.5-3.6l-40.4-3.7c-32.1-3-64.2-6.1-96.3-9.4l-31.8,15l74.8,2.3c357.6,31,549.3,72,679.9,143.2"/>
	<path class="st2" d="M-2790.6-4152.8c14.2,4.9,84.8,55.3,160.8,78.5c14,4.3,28.2,7.1,42.3,10.1s28.1,5.5,42,7.8
		c7,1.1,14,2.2,20.9,3.2s13.9,2,20.8,2.9s13.9,1.8,20.8,2.6c6.9,0.8,13.8,1.6,20.7,2.4c27.6,2.9,55.1,5.3,82.5,7.3
		c54.8,3.9,109.3,6.6,163.6,9.3c54.3,2.6,108.5,5.1,162.5,8.2c50.4,2.9,100.8,6.3,151,10.5l49.3-13.7l-89.5-2.6
		c-389.2-33.8-786.8-56.6-847.8-244.8"/>
	<path class="st1" d="M-1262.7-3883c-62.9-67.3-294.5-108.7-636.7-139.4c-7.4-0.7-9.9,9.6-3,12.4l0,0l10.8,0.9
		c13.5,1.2,26.9,2.4,40.3,3.8c13.4,1.3,26.9,2.7,40.3,4.3c26.8,3.2,53.5,7.3,80.1,12.1s52.9,10.6,79.1,17.3s52,14.3,77.5,22.8
		c25.5,8.6,50.6,18,75.1,28.4l9.2,3.9l9.1,4c6.1,2.6,12,5.4,18,8.2c11.9,5.7,23.6,11.4,35,17.4c22.9,12,44.7,24.8,64.9,38.2l7.5,5.1
		c2.5,1.7,4.8,3.5,7.3,5.2c1.2,0.9,2.4,1.7,3.6,2.6l3.5,2.6c2.3,1.7,4.7,3.4,6.9,5.2c2.2,1.8,4.6,3.4,6.7,5.2l6.5,5.3
		c2.1,1.8,4.1,3.6,6.2,5.4s4,3.6,6,5.3c7.4,6.8,14.5,14,21.1,21.5c5.9,6.6,11.2,13.6,16,21c4.1,6.2,7.6,12.8,10.6,19.7"/>
	<path class="st1" d="M-2790.6-4271.1c58.6,180.8,427.7,209,801.8,240.9c8,0.7,10.6-10.4,3.2-13.4l0,0c-21.8-2.3-43.5-4.6-65.2-7.1
		c-53.7-6.2-107.3-13.2-160.6-21.7s-106.3-18.2-158.5-30.2c-13-3-26-6.1-39-9.4s-25.8-6.7-38.5-10.3c-25.5-7.2-50.7-15-75.2-23.7
		c-12.2-4.4-24.3-8.9-36.2-13.7c-11.9-4.8-23.5-9.9-34.8-15.2c-22.6-10.7-43.9-22.6-62.6-35.7c-18.7-13.1-90.6-65.6-134.3-179.6"/>
</g>
<g>
	<path class="st2" d="M1043.9-4250.8c14.9-9.7,30.3-18.5,46-26.6c31-15.9,63.5-28.9,97-38.6c16.4-4.9,32.9-8.9,49.4-12.2
		c16.4-3.3,32.8-6,49.1-8c8.1-1,16.3-1.8,24.4-2.5c4-0.4,8.1-0.7,12.1-0.9c4-0.3,8.1-0.5,12.1-0.7c8-0.4,16-0.7,24-0.8
		c7.9-0.2,15.8-0.1,23.7,0c15.7,0.3,31.3,0.9,46.7,2c7.7,0.6,15.3,1.2,22.9,2c3.8,0.4,7.6,0.8,11.4,1.2c3.8,0.4,7.6,0.8,11.3,1.3
		c15.1,1.8,29.9,4.1,44.6,6.6c7.4,1.2,14.7,2.6,21.9,4c7.3,1.4,14.5,2.9,21.7,4.4c57.5,12.4,112.5,28.6,165.9,46.7
		c13.3,4.5,26.6,9.2,39.7,13.9c13.1,4.7,26.2,9.4,39.2,14.2c13,4.9,25.9,9.7,38.7,14.6l19.2,7.3l19.4,7.5l19.8,7.7
		c3.3,1.3,6.6,2.5,9.9,3.9l9.9,4.1l19.7,8.1l19.5,8.5l9.8,4.2l9.7,4.4c6.4,3,12.9,5.8,19.3,8.9l19,9l18.7,9.1l36.6,18l9,4.4l8.9,4.2
		c3,1.4,6,2.8,9,4.2l8.9,4l8.9,4l8.9,3.7c3,1.2,6,2.4,9,3.7c3,1.2,6,2.2,9,3.4c12,4.6,24.3,8.7,36.7,12.6l18.8,5.3
		c1.6,0.4,3.1,0.9,4.7,1.3l4.8,1.2l9.6,2.3c6.4,1.5,12.8,3.2,19.3,4.4l19.5,4l4.9,1l5,0.9l10,1.8c6.6,1.2,13.3,2.4,19.9,3.5
		c6.6,1.1,13.3,2.2,19.9,3.3c6.6,1,13.2,2.1,19.9,3c6.6,0.9,13.3,1.8,19.9,2.7l10,1.2l10,1.1c13.3,1.4,26.6,2.6,39.9,3.3
		c26.6,1.6,53.2,1.7,79.8,0.3l9.9-0.7l5-0.3l5-0.5l9.9-0.9l9.9-1.2l4.9-0.6c1.7-0.2,3.3-0.5,4.9-0.7l9.8-1.4
		c3.3-0.5,6.5-1.1,9.8-1.7s6.6-1.1,9.8-1.8l9.8-2c3.3-0.6,6.5-1.5,9.7-2.2s6.5-1.5,9.7-2.3l9.6-2.5l4.8-1.3l4.8-1.4l9.5-2.8
		c3.2-1,6.3-2.1,9.4-3.1c3.1-1,6.3-2,9.4-3.2c3.4-1.2,6.8-2.5,10.2-3.8l17,11l-40.5,10.3c-139.4,42.1-268.2,28.7-379.6,17.1
		c-179.4-18.7-204.5-59.4-403.4-106.9c-245.4-58.6-616.9-5.1-828.6,150.4"/>
	<path class="st2" d="M2981-4228.5c0,0-1.8,1.9-23.6,19.7c-43.8,35.7-91,66.8-141.1,93c-24.6,13-49.7,24.7-74.9,35.5
		c-25.4,11-51.3,20.7-77.6,29.1c-13.8,4.4-27.7,8.4-41.7,11.9l-28.7-7.8l48.9-10.6c33.1-10,65.4-22.7,96.5-38
		c57.3-28.1,136.2-69,244.5-194.4"/>
	<path class="st1" d="M2983.5-4290.1c-105.1,130.1-187.2,166.3-244.6,194.4c-21.5,10.6-43.6,19.9-66.2,28c-7,2.5-12.3-6.4-6.8-11.3
		l0,0c21.4-8.1,42.2-17.5,62.4-28.3c23.5-12.3,46.2-26.2,67.9-41.4l4.1-2.8l4-2.9c2.6-2,5.3-3.9,7.9-5.9l7.8-6l7.7-6.2
		c10.2-8.3,20-16.9,29.5-25.9c2.4-2.2,4.7-4.5,7-6.8s4.7-4.5,6.9-6.9c4.5-4.7,9.1-9.4,13.4-14.2c8.8-9.5,17-19.5,25-29.6
		c7.8-10.2,15.4-20.5,22.3-31.3l5.2-8l5-8.2l2.5-4.1l1.2-2l1.2-2.1l4.6-8.3l2.3-4.1l2.2-4.2l4.3-8.4c1.5-2.8,2.8-5.6,4.1-8.5
		c1.3-2.8,2.6-5.7,3.9-8.5c0.7-1.4,1.3-2.9,1.9-4.3l1.8-4.3l3.6-8.6c2.2-5.8,4.4-11.6,6.5-17.4l5.8-17.6"/>
	<path class="st1" d="M1031-3997c0,0,1.8-89.2,66.5-126.3c211.6-155.5,516.7-82.7,762.1-24.1c199,47.5,224,88.2,403.4,106.9
		c104.4,10.9,224,23.3,353.1-9.8c3.5-0.9,7,1.2,7.9,4.6c0.6,2.3-0.1,4.8-1.9,6.5l0,0c-12.7,3.2-25.5,6.2-38.4,8.8
		c-3.4,0.8-6.8,1.3-10.1,2c-3.4,0.7-6.8,1.3-10.2,1.9c-6.8,1.1-13.6,2.3-20.4,3.3l-10.2,1.5l-10.2,1.3l-5.1,0.7l-5.1,0.6l-10.3,1.1
		c-54.8,5.5-110,6.1-164.8,4.9c-13.7-0.2-27.4-0.7-41-1.1l-20.4-0.6l-10.2-0.3l-5.1-0.1l-5.2-0.2l-20.8-0.8
		c-6.9-0.2-13.9-0.7-20.9-1.1l-10.5-0.6l-5.2-0.3c-1.8-0.1-3.5-0.3-5.3-0.5l-21.1-1.9c-14.1-1.6-28.3-3.1-42.4-5.4
		c-3.5-0.6-7.1-1-10.6-1.7l-10.6-1.9l-10.6-1.9l-10.4-2.1l-10.5-2.1c-3.5-0.7-6.9-1.5-10.3-2.2l-10.3-2.2l-10.2-2.2l-20.1-4.5
		l-9.9-2.2l-5-1.1l-4.9-1l-19.6-4.1l-19.4-3.8c-6.5-1.2-13-2.3-19.4-3.4l-9.7-1.7l-9.7-1.5l-19.4-2.9l-19.5-2.5l-9.7-1.2
		c-3.2-0.4-6.5-0.7-9.8-1.1l-19.5-2.1l-20-2.1l-20.3-2l-40.3-3.9c-26.8-2.5-53.3-5-79.6-6.9c-52.6-4-104.2-6.8-154.1-7
		c-49.9-0.2-98.2,1.6-143.4,7.3c-11.3,1.4-22.4,3-33.3,4.9c-2.7,0.4-5.4,1-8.1,1.5s-5.4,1-8,1.5s-5.3,1-7.9,1.6l-7.8,1.7
		c-20.1,4.5-39.8,10.3-59.2,17.3c-18.1,6.6-35.7,14.5-52.6,23.8c-8.2,4.5-16.2,9.3-24,14.4c-7.8,5.1-15.2,10.5-22.7,16.2
		c-29.8,23-58.1,51.5-83,83.6c-25.3,32.4-46.3,67.9-62.6,105.6"/>
</g>
<g>
	<path class="st2" d="M3054.2-3170.3c-52.4-50-30.7-40.1-394.5-265c-583-270.7-1275.4-280.6-1681.8-259.4l-0.4-5.7
		c13.5-0.4,27-1.2,40.6-2s27-1.6,40.5-2.5s27-1.8,40.5-2.7s27-1.8,40.6-2.8l162.5-11.4l20.4-1.4l20.4-1.3
		c13.6-0.8,27.2-1.9,40.8-2.6s27.2-1.7,40.9-2.4l20.5-1l20.5-1.1c54.6-2.5,109.4-4.7,164.4-5.9c55-1.1,110.2-1.7,165.6-1.2
		c6.9,0,13.8,0.1,20.8,0.3l20.8,0.4l20.8,0.4c6.9,0.1,13.9,0.4,20.8,0.7l41.7,1.3l41.8,2l10.5,0.5c3.5,0.2,7,0.3,10.5,0.6l20.9,1.4
		l20.9,1.4c7,0.5,14,0.9,21,1.5l41.9,3.6l10.5,0.9c3.5,0.3,7,0.7,10.5,1.1l21,2.2l21,2.2l10.5,1.1l10.5,1.3l41.9,5.5l10.5,1.4
		l10.5,1.6l21,3.3l21,3.3l10.5,1.7l10.4,1.9l20.9,3.8l20.9,3.9l10.5,2l10.4,2.2c7,1.4,13.9,3,20.8,4.5l20.8,4.5l10.4,2.3l10.4,2.5
		l41.5,10.3l10.4,2.6l10.3,2.9l20.6,5.8l20.6,5.9l10.3,3c3.4,1,6.8,2.1,10.2,3.2l20.5,6.5l20.5,6.6l10.2,3.3
		c3.4,1.1,6.8,2.4,10.2,3.5l20.3,7.2l20.3,7.3c6.7,2.5,13.5,4.8,20.2,7.5c13.4,5.3,26.8,10.6,40.1,16l10,4l5,2l5,2.1l19.9,8.6
		c13.2,5.7,26.4,11.9,39.6,17.9c3.3,1.5,6.6,3,9.9,4.6l9.9,4.8l19.7,9.6c3.3,1.6,6.5,3.3,9.8,5l9.8,5.1c6.5,3.4,13.1,6.7,19.6,10.3
		l19.5,10.7c3.2,1.8,6.5,3.6,9.7,5.4l9.7,5.6l19.3,11.3l19.2,11.8l9.6,5.9l9.5,6.2c6.4,4.1,12.7,8.2,19,12.5l18.9,13l4.7,3.3
		l4.7,3.4l9.3,6.8c25.3,18.5,5.6,1,28.8,21.9"/>
	<path class="st1" d="M3069.6-2893.6c-1-2.5-2.1-4.9-3.2-7.3l-3.3-7.2l-1.6-3.6c-0.5-1.2-1.2-2.4-1.8-3.5l-3.5-7.1l-1.7-3.5
		c-0.6-1.2-1.2-2.3-1.8-3.4c-1.2-2.3-2.4-4.6-3.6-6.8l-3.7-6.7c-1.3-2.2-2.6-4.3-3.9-6.5s-2.6-4.3-3.9-6.4s-2.6-4.2-4-6.3l-4.1-6.2
		c-1.4-2.1-2.8-4.1-4.2-6.1l-2.1-3c-0.7-1-1.5-2-2.2-3c-1.5-2-2.9-4-4.3-6l-4.5-5.9l-2.2-2.9c-0.7-1-1.6-1.9-2.3-2.9l-4.6-5.8
		c-1.5-1.9-3.2-3.8-4.8-5.7l-2.4-2.9c-0.8-1-1.6-1.9-2.4-2.9l-5-5.6l-2.5-2.8l-2.6-2.8c-13.7-14.9-28.4-29.5-44.2-43.8
		s-32.5-28.4-50-42.3s-35.9-27.5-54.8-41l-7.1-5.1c-1.2-0.9-2.3-1.7-3.6-2.5l-3.6-2.5l-14.6-10c-4.9-3.3-9.9-6.6-14.9-9.9l-7.4-4.9
		l-7.6-4.8l-15.2-9.7l-15.5-9.5l-7.7-4.8c-2.6-1.6-5.3-3.1-7.9-4.7l-15.8-9.4c-2.6-1.6-5.3-3.1-8-4.6l-8-4.6
		c-5.4-3.1-10.6-6.2-16.1-9.2l-16.3-9.1l-8.1-4.6c-2.7-1.5-5.5-3-8.2-4.5c-11-5.9-21.9-12.1-33.2-17.9l-16.7-8.9l-4.2-2.2l-4.2-2.1
		l-8.5-4.3c-11.3-5.7-22.6-11.6-33.8-17.4c-5.6-3-11.3-5.7-17-8.5l-17.1-8.4c-91.2-45.3-185.4-87.1-282-126.4l-9-3.7l-9.1-3.6
		l-18.2-7.1l-18.3-7.2l-9.1-3.6l-9.2-3.4l-36.9-13.8l-9.2-3.5l-9.3-3.3l-18.6-6.6c-24.8-9.1-49.9-17.2-74.9-25.8
		c-6.3-2.2-12.6-4.1-18.9-6.1l-18.9-6l-19-6.1c-3.2-1-6.3-2-9.5-2.9l-9.6-2.9c-50.8-15.7-102.4-29.5-154.3-42.6l-19.5-4.7l-19.5-4.6
		c-3.3-0.8-6.5-1.6-9.8-2.3l-9.8-2.2l-19.7-4.3c-26.2-5.9-52.5-11-78.9-16.2c-26.4-4.8-52.9-9.7-79.5-13.9l-20-3.2
		c-6.7-1-13.3-2-20-3l-20-2.8c-6.7-0.9-13.3-1.9-20-2.8c-53.5-7.1-107.1-12.8-161.1-16.9c-53.9-4.1-107.9-6.5-162-6.9
		c-13.5-0.1-27,0-40.5,0.1s-27,0.5-40.5,0.9s-27,1.1-40.5,1.8s-27,1.8-40.4,3l-0.3-4.3c406.4-21.4,1098.8-11.5,1681.8,259.2
		c291.3,142.7,394.5,265,394.5,265"/>
</g>
<g>
	<path class="st3" d="M4673.8-4168.4c-449.9,105.8-1534.9,122.6-1529.5,408.2v65.6h1529.6L4673.8-4168.4z"/>
	<path class="st2" d="M3142.8-3991.8c3.8-1.3,7.5-2.5,11.3-3.7l5.6-1.8c1.9-0.6,3.7-1.1,5.6-1.6c1.9-0.6,3.7-1.1,5.6-1.6
		c1.9-0.5,3.7-1,5.6-1.5l11.2-2.9c7.4-1.8,14.9-3.5,22.2-5c7.4-1.5,14.7-2.9,22.1-4.2c14.7-2.5,29.3-4.6,43.8-6.4
		c29-3.4,57.6-5.6,85.8-7.2c14.2-0.7,28.2-1.4,42.2-1.8l10.5-0.4l10.5-0.3l20.9-0.7c55.5-1.6,110.2-3,164.6-5.9
		c27.2-1.5,54.3-3.3,81.3-5.4c13.5-1.1,27-2.3,40.5-3.6l40.4-3.7c32.1-3,64.2-6.1,96.3-9.4l31.8,15l-74.8,2.3
		c-357.6,31-549.3,72-679.9,143.2"/>
	<path class="st2" d="M4673.8-4168.4c-14.2,4.9-84.8,55.3-160.8,78.5c-14,4.3-28.2,7.1-42.3,10.1s-28.1,5.5-42,7.8
		c-7,1.1-14,2.2-20.9,3.2s-13.9,2-20.8,2.9c-6.9,0.9-13.9,1.8-20.8,2.6c-6.9,0.8-13.8,1.6-20.7,2.4c-27.6,2.9-55.1,5.3-82.5,7.3
		c-54.8,3.9-109.3,6.6-163.6,9.3c-54.3,2.6-108.5,5.1-162.5,8.2c-50.4,2.9-100.8,6.3-151,10.5l-49.3-13.7l89.5-2.6
		c389.2-33.8,786.8-56.6,847.8-244.8"/>
	<path class="st1" d="M3145.9-3898.6c62.9-67.3,294.5-108.7,636.7-139.4c7.4-0.7,9.9,9.6,3,12.4l0,0l-10.8,0.9
		c-13.5,1.2-26.9,2.4-40.3,3.8c-13.4,1.3-26.9,2.7-40.3,4.3c-26.8,3.2-53.5,7.3-80.1,12.1s-52.9,10.6-79.1,17.3
		c-26.2,6.7-52,14.3-77.6,22.8c-25.5,8.6-50.6,18-75.1,28.4l-9.1,3.9l-9.1,4c-6.1,2.6-12,5.4-18,8.2c-11.9,5.7-23.6,11.4-35,17.4
		c-22.9,12-44.7,24.8-64.9,38.2l-7.5,5.1c-2.5,1.7-4.8,3.5-7.3,5.2c-1.2,0.9-2.4,1.7-3.6,2.6l-3.5,2.6c-2.3,1.7-4.7,3.4-6.9,5.2
		s-4.6,3.4-6.7,5.2l-6.5,5.3c-2.1,1.8-4.1,3.6-6.2,5.4c-2.1,1.7-4,3.6-6,5.3c-7.4,6.8-14.5,14-21.1,21.5c-5.9,6.6-11.2,13.6-16,21
		c-4.1,6.2-7.6,12.8-10.6,19.7"/>
	<path class="st1" d="M4673.8-4286.7c-58.6,180.8-427.7,209-801.8,240.9c-8,0.7-10.6-10.4-3.2-13.4l0,0c21.8-2.3,43.5-4.6,65.2-7.1
		c53.7-6.2,107.3-13.2,160.6-21.7c53.3-8.5,106.3-18.2,158.5-30.2c13-3,26-6.1,39-9.4s25.8-6.7,38.5-10.3
		c25.5-7.2,50.7-15,75.2-23.7c12.2-4.4,24.3-8.9,36.2-13.7c11.9-4.8,23.5-9.9,34.8-15.2c22.6-10.7,43.9-22.6,62.6-35.7
		s90.6-65.6,134.3-179.6"/>
</g>
<g>
	<path class="st1" d="M831.3-1159.4c79.8-70.6,209.8-118.1,323.7-125.8l38.1,2l-12.3-15.3l-3.4,0.1l-10.3,0.3
		c-3.4,0.1-6.9,0.3-10.3,0.5c-6.9,0.3-13.7,0.8-20.6,1.2c-27.5,2-54.9,5-82.3,9.8l-5.1,0.9l-5.1,1c-3.4,0.7-6.9,1.3-10.3,2
		c-6.8,1.5-13.7,2.9-20.5,4.6l-5.1,1.2c-1.7,0.4-3.4,0.9-5.1,1.3l-10.2,2.7c-6.8,2-13.6,3.9-20.3,6.1c-3.4,1.1-6.8,2.1-10.1,3.3
		c-3.3,1.2-6.8,2.3-10.1,3.5c-6.7,2.5-13.4,5-20,7.7l-5,2c-1.7,0.7-3.3,1.4-5,2.2c-3.3,1.5-6.6,2.9-9.9,4.4l-9.8,4.7
		c-1.6,0.8-3.3,1.6-4.9,2.4l-4.8,2.5c-12.9,6.7-48.8,30.9-61.2,38.8"/>
	<path class="st1" d="M2571.7-1065.8C2387.2-902.2,1667.3-1320,1155-1285.2l-55.6,1.4l24.8,14.5c4.7-0.7,9.5-1.3,14.2-1.8
		c26.5-2.9,53.1-4.3,79.8-4c26.7,0.2,53.5,1.8,80.1,4.6c53.3,5.6,106.1,15.7,158.1,28.9c52,13.2,103.4,29.5,154.1,47.6
		c25.4,9,50.6,18.5,75.8,28.3s50.3,19.8,75.4,30c50.2,20.4,100.3,41.2,151,61.5s101.9,39.7,154.4,57.4c26.2,8.8,52.7,17.2,79.7,24.9
		s54.3,14.8,82.1,21.1c6.9,1.6,14,3,21,4.5s14.1,2.8,21.2,4.1c14.2,2.7,28.6,5,43.1,7.1c29.7,4.3,59.6,6.9,89.6,7.8
		c31.9,1.1,63.8-0.4,95.4-4.4c16.9-2.2,55.3-8.2,71.8-12.4"/>
	<path class="st2" d="M2574.2-1171c-5.8,4.7-12.1,8.9-18.8,12.5c-7.2,3.8-14.6,7.1-22.4,9.7c-8.6,2.9-17.4,5.3-26.3,7.1
		c-9.9,2-19.8,3.4-29.8,4.4c-22.1,2-44.4,2.6-66.6,1.6c-11.7-0.4-23.5-1.2-35.5-2.2s-24.2-2.2-36.5-3.6s-24.7-2.9-37.1-4.7
		c-6.2-0.8-12.5-1.8-18.8-2.6s-12.6-1.8-18.9-2.9c-25.3-3.9-50.8-8.2-76.6-12.7s-51.7-9.2-77.9-13.9
		c-52.3-9.5-105.2-19.1-158.6-28.5s-107.2-18.4-161.3-27c-108.1-17.2-216.8-33.5-325.4-46.7c-54.3-6.5-108.7-12.1-163.2-15.4
		c-27.3-1.6-54.6-2.7-82-2.9c-12.5-0.1-25.1,0-37.7,0.4l0,0c-3.1,1.6-4.3,5.4-2.7,8.4c1.1,2.2,3.4,3.5,5.8,3.4
		c511.8-16.4,1228.4,407.4,1387.8,220.8"/>
	<path class="st2" d="M831.3-1069.4c11.2-22.3,24.5-43.6,39.6-63.5c1.9-2.5,3.9-4.9,5.8-7.4c1.9-2.5,4-4.8,6-7.2s4.1-4.6,6.2-7
		c1-1.2,2.1-2.3,3.2-3.5l3.3-3.4l3.3-3.4c1.1-1.1,2.2-2.3,3.3-3.3c2.3-2.2,4.5-4.4,6.8-6.5s4.7-4.2,7.1-6.3c1.2-1,2.4-2.1,3.6-3.1
		l3.7-3c9.8-8.1,20.1-15.6,30.9-22.4c10.8-7,22-13.4,33.5-19.1c11.6-5.8,23.6-11,35.8-15.6c12.2-4.7,24.7-8.7,37.4-12.2
		c20.9-5.8,42.2-10.1,63.7-13.1l0,0c6.6-3.4,3.6-13.5-3.8-12.7c-99.8,11.6-217.5,59.3-289.1,122.6"/>
</g>
<g>
	<path class="st1" d="M236.1-969.6c-79.8-70.6-209.8-118.1-323.7-125.8l-38.1,2l12.3-15.3l3.4,0.1l10.3,0.3
		c3.4,0.1,6.9,0.3,10.3,0.5c6.9,0.3,13.7,0.8,20.6,1.2c27.5,2,54.9,5,82.4,9.8l5.1,0.9l5.1,1c3.4,0.7,6.9,1.3,10.3,2
		c6.8,1.5,13.7,2.9,20.5,4.6l5.1,1.2c1.7,0.4,3.4,0.9,5.1,1.3l10.2,2.7c6.8,2,13.6,3.9,20.3,6.1c3.4,1.1,6.8,2.1,10.1,3.3
		s6.8,2.3,10.1,3.5c6.7,2.5,13.4,5,20,7.7l5,2c1.7,0.7,3.3,1.4,5,2.2c3.3,1.5,6.6,2.9,9.9,4.4l9.8,4.7c1.6,0.8,3.3,1.6,4.9,2.4
		l4.8,2.5c12.9,6.7,48.8,30.9,61.2,38.8"/>
	<path class="st1" d="M-1504.4-876c184.5,163.6,904.4-254.2,1416.7-219.4l55.6,1.4l-24.8,14.5c-4.7-0.7-9.5-1.3-14.2-1.8
		c-26.5-2.9-53.1-4.3-79.8-4c-26.7,0.2-53.5,1.8-80.1,4.6c-53.3,5.6-106.1,15.7-158.1,28.9s-103.4,29.5-154.1,47.6
		c-25.4,9-50.6,18.5-75.8,28.3s-50.3,19.8-75.4,30c-50.2,20.4-100.3,41.2-151,61.5s-101.9,39.7-154.4,57.4
		c-26.2,8.8-52.7,17.2-79.7,24.9s-54.3,14.8-82.1,21.1c-6.9,1.6-14,3-21,4.5s-14.1,2.8-21.2,4.1c-14.2,2.7-28.6,5-43.1,7.1
		c-29.7,4.3-59.6,6.9-89.7,7.8c-31.9,1.1-63.8-0.4-95.4-4.4c-16.9-2.2-55.3-8.2-71.8-12.4"/>
	<path class="st2" d="M-1506.8-981.2c5.8,4.7,12.1,8.9,18.8,12.5c7.2,3.8,14.6,7.1,22.4,9.7c8.6,2.9,17.4,5.3,26.3,7.1
		c9.9,2,19.8,3.4,29.8,4.4c22.1,2,44.4,2.6,66.6,1.6c11.7-0.4,23.5-1.2,35.5-2.2s24.2-2.2,36.5-3.6s24.7-2.9,37.1-4.7
		c6.2-0.8,12.5-1.8,18.8-2.6s12.6-1.8,18.9-2.9c25.3-3.9,50.8-8.2,76.6-12.7s51.7-9.2,77.9-13.9c52.3-9.5,105.2-19.1,158.6-28.5
		c53.4-9.3,107.2-18.4,161.3-27c108.1-17.2,216.8-33.5,325.4-46.7c54.3-6.5,108.7-12.1,163.2-15.4c27.3-1.6,54.6-2.7,82-2.9
		c12.5-0.1,25.1,0,37.7,0.4l0,0c3.1,1.6,4.3,5.4,2.7,8.4c-1.1,2.2-3.4,3.5-5.8,3.4C-628.3-1113.2-1345-689.4-1504.4-876"/>
	<path class="st2" d="M236.1-879.6c-11.2-22.3-24.5-43.6-39.6-63.5c-1.9-2.5-3.9-4.9-5.8-7.4s-4-4.8-6-7.2s-4.1-4.6-6.2-7
		c-1-1.2-2.1-2.3-3.1-3.5l-3.3-3.4l-3.3-3.4c-1.1-1.1-2.2-2.3-3.3-3.3c-2.3-2.2-4.5-4.4-6.8-6.5s-4.7-4.2-7.1-6.3
		c-1.2-1-2.4-2.1-3.6-3.1l-3.7-3c-9.8-8.1-20.1-15.6-30.9-22.4c-10.8-7-22-13.4-33.5-19.1c-11.6-5.8-23.6-11-35.8-15.6
		c-12.2-4.7-24.7-8.7-37.4-12.2c-20.9-5.8-42.2-10.1-63.7-13.1l0,0c-6.6-3.4-3.6-13.5,3.8-12.7c99.8,11.6,217.5,59.3,289.1,122.6"/>
</g>
<g>
	<path class="st3" d="M-1561.7-4887c0,0,88.3-126.5,431.5-32.9c138.6,37.8,882.2,173.1,942.2,157.6s273.2-58.2,273.2-58.2L181-4926
		l0.2,278.2h-1742.9L-1561.7-4887L-1561.7-4887z"/>
	<path class="st1" d="M181.2-4898.6c-79.8,70.6-209.8,118.1-323.7,125.8l-38.1-2l12.3,15.3l3.4-0.1l10.3-0.4
		c3.4-0.1,6.9-0.3,10.3-0.5c6.9-0.3,13.7-0.8,20.6-1.2c27.5-2,54.9-5,82.4-9.8l5.1-0.9l5.1-1c3.4-0.7,6.9-1.3,10.3-2
		c6.8-1.5,13.7-2.9,20.5-4.6l5.1-1.2c1.7-0.4,3.4-0.9,5.1-1.3l10.2-2.7c6.8-2,13.6-3.9,20.3-6.1c3.4-1.1,6.8-2.1,10.1-3.3
		s6.8-2.3,10.1-3.5c6.7-2.5,13.4-5,20-7.7l5-2c1.7-0.7,3.3-1.4,5-2.2c3.3-1.5,6.6-2.9,9.9-4.4l9.8-4.7c1.6-0.8,3.3-1.6,4.9-2.4
		l4.8-2.5c12.9-6.7,48.8-30.9,61.2-38.8"/>
	<path class="st1" d="M-1559.3-4992.2c184.5-163.6,904.4,254.2,1416.7,219.4l55.6-1.4l-24.8-14.5c-4.7,0.7-9.5,1.3-14.2,1.8
		c-26.5,2.9-53.1,4.3-79.8,4c-26.7-0.1-53.5-1.8-80.1-4.6c-53.3-5.5-106.1-15.7-158.1-28.9s-103.4-29.5-154.1-47.6
		c-25.4-9-50.6-18.5-75.8-28.3s-50.3-19.8-75.4-30c-50.2-20.4-100.3-41.2-151-61.5s-101.9-39.7-154.4-57.4
		c-26.2-8.8-52.7-17.2-79.7-24.9c-26.9-7.7-54.3-14.8-82.1-21.1c-6.9-1.6-14-3-21-4.5s-14.1-2.8-21.2-4.1c-14.2-2.7-28.6-5-43.1-7.1
		c-29.7-4.3-59.6-6.9-89.7-7.9c-31.9-1.1-63.8,0.4-95.4,4.4c-16.9,2.2-55.3,8.2-71.8,12.4"/>
	<path class="st2" d="M-1561.7-4887c5.8-4.7,12.1-8.9,18.8-12.5c7.2-3.8,14.6-7.1,22.4-9.7c8.6-2.9,17.4-5.3,26.3-7.1
		c9.9-2,19.8-3.4,29.8-4.4c22.1-2,44.4-2.6,66.6-1.6c11.7,0.5,23.5,1.1,35.5,2.2s24.2,2.2,36.5,3.6s24.7,2.9,37.1,4.7
		c6.2,0.8,12.5,1.8,18.8,2.6c6.3,0.9,12.6,1.8,18.9,2.9c25.3,3.9,50.8,8.2,76.6,12.7s51.7,9.2,77.9,13.9
		c52.3,9.5,105.2,19.1,158.6,28.5s107.2,18.4,161.3,27c108.1,17.2,216.8,33.5,325.4,46.7c54.3,6.5,108.7,12.1,163.2,15.4
		c27.3,1.6,54.6,2.7,82,2.9c12.5,0.1,25.1,0,37.7-0.4l0,0c3.1-1.6,4.3-5.4,2.7-8.4c-1.1-2.2-3.4-3.5-5.8-3.4
		c-511.8,16.4-1228.4-407.4-1387.8-220.8"/>
	<path class="st2" d="M181.2-4988.5c-11.2,22.3-24.5,43.6-39.6,63.5c-1.9,2.5-3.9,4.9-5.8,7.4c-1.9,2.5-4,4.8-6,7.2
		c-2,2.4-4.1,4.6-6.2,7c-1,1.1-2.1,2.3-3.1,3.5l-3.3,3.4l-3.3,3.4c-1.1,1.1-2.2,2.3-3.3,3.3c-2.3,2.2-4.5,4.4-6.8,6.5
		s-4.7,4.2-7.1,6.3c-1.2,1-2.4,2.1-3.6,3.1l-3.7,3c-9.8,8.1-20.1,15.6-30.9,22.4c-10.8,7-22,13.4-33.5,19.1
		c-11.6,5.8-23.6,11-35.8,15.6c-12.2,4.7-24.7,8.7-37.4,12.2c-20.9,5.8-42.2,10.1-63.7,13.1l0,0c-6.6,3.4-3.6,13.5,3.8,12.7
		c99.8-11.6,217.5-59.3,289.1-122.6"/>
</g>
<g>
	<path class="st1" d="M1144.1-4592c79.8,70.6,209.8,118.1,323.7,125.8l38.1-2l-12.3,15.3l-3.4-0.1l-10.3-0.4
		c-3.4-0.1-6.9-0.3-10.3-0.5c-6.9-0.3-13.7-0.8-20.6-1.2c-27.5-2-54.9-5-82.4-9.8l-5.1-0.9l-5.1-1c-3.4-0.7-6.9-1.3-10.3-2
		c-6.8-1.5-13.7-2.9-20.5-4.6l-5.1-1.2c-1.7-0.4-3.4-0.9-5.1-1.3l-10.2-2.7c-6.8-2-13.6-3.9-20.3-6.1c-3.4-1.1-6.8-2.1-10.1-3.3
		c-3.3-1.2-6.8-2.3-10.1-3.5c-6.7-2.5-13.4-5-20-7.7l-5-2c-1.7-0.7-3.3-1.4-4.9-2.2c-3.3-1.5-6.6-2.9-9.9-4.4l-9.8-4.7
		c-1.6-0.8-3.3-1.6-4.9-2.4l-4.8-2.5c-12.9-6.7-48.8-30.9-61.2-38.8"/>
	<path class="st1" d="M2884.6-4685.6c-184.5-163.6-904.4,254.2-1416.7,219.4l-55.6-1.4l24.8-14.5c4.7,0.7,9.5,1.3,14.2,1.8
		c26.5,2.9,53.1,4.3,79.8,4c26.7-0.1,53.5-1.8,80.1-4.6c53.3-5.5,106.1-15.7,158.1-28.9c52-13.2,103.4-29.5,154.1-47.6
		c25.4-9,50.6-18.5,75.8-28.3s50.3-19.8,75.4-30c50.2-20.4,100.3-41.2,151-61.5c50.7-20.2,101.9-39.7,154.4-57.4
		c26.2-8.8,52.7-17.2,79.7-24.9c26.9-7.7,54.3-14.8,82.1-21.1c6.9-1.6,14-3,21-4.5s14.1-2.8,21.2-4.1c14.2-2.7,28.6-5,43.1-7.1
		c29.7-4.3,59.6-6.9,89.7-7.9c31.9-1.1,63.8,0.4,95.4,4.4c16.9,2.2,55.3,8.2,71.8,12.4"/>
	<path class="st2" d="M2887-4580.4c-5.8-4.7-12.1-8.9-18.8-12.5c-7.2-3.8-14.6-7.1-22.4-9.7c-8.6-2.9-17.4-5.3-26.3-7.1
		c-9.9-2-19.8-3.4-29.8-4.4c-22.1-2-44.4-2.6-66.6-1.6c-11.7,0.5-23.5,1.1-35.5,2.2s-24.2,2.2-36.5,3.6s-24.6,2.9-37.1,4.7
		c-6.2,0.8-12.5,1.8-18.8,2.6c-6.3,0.9-12.6,1.8-18.9,2.9c-25.3,3.9-50.8,8.2-76.6,12.7s-51.7,9.2-77.9,13.9
		c-52.3,9.5-105.2,19.1-158.6,28.5c-53.4,9.3-107.2,18.4-161.3,27c-108.1,17.2-216.8,33.5-325.4,46.7
		c-54.3,6.5-108.7,12.1-163.2,15.4c-27.3,1.6-54.6,2.7-82,2.9c-12.5,0.1-25.1,0-37.7-0.4l0,0c-3.1-1.6-4.3-5.4-2.7-8.4
		c1.1-2.2,3.4-3.5,5.8-3.4c511.8,16.4,1228.4-407.4,1387.8-220.8"/>
	<path class="st2" d="M1144.1-4681.9c11.2,22.3,24.5,43.6,39.6,63.5c1.9,2.5,3.9,4.9,5.8,7.4s4,4.8,6,7.2s4.1,4.6,6.2,7
		c1,1.1,2.1,2.3,3.2,3.5l3.3,3.4l3.3,3.4c1.1,1.1,2.2,2.3,3.3,3.3c2.3,2.2,4.5,4.4,6.8,6.5s4.7,4.2,7.1,6.3c1.2,1,2.4,2.1,3.6,3.1
		l3.7,3c9.8,8.1,20.1,15.6,30.9,22.4c10.8,7,22,13.4,33.5,19.1c11.6,5.8,23.6,11,35.8,15.6c12.2,4.7,24.7,8.7,37.4,12.2
		c20.9,5.8,42.2,10.1,63.7,13.1l0,0c6.6,3.4,3.6,13.5-3.8,12.7c-99.8-11.6-217.5-59.3-289.1-122.6"/>
</g>
</svg>
